<?xml version="1.0" encoding="utf-8"?>
<!-- Generator: Adobe Adobe Illustrator 24.2.0, SVG Export Plug-In . SVG Version: 6.00 Build 0)  -->
<svg version="1.1" xmlns="http://www.w3.org/2000/svg" xmlns:xlink="http://www.w3.org/1999/xlink" x="0px" y="0px" width="1728px"
	 height="1296px" viewBox="0 0 1728 1296" style="enable-background:new 0 0 1728 1296;" xml:space="preserve">
<style type="text/css">
	.girl_st0{display:none;}
	.girl_st1{stroke:#000000;stroke-width:3;stroke-miterlimit:10;}
	.girl_st2{fill:#D4AA8E;stroke:#000000;stroke-width:3;stroke-miterlimit:10;}
	.girl_st3{fill:#E3B596;stroke:#000000;stroke-width:3;stroke-miterlimit:10;}
	.girl_st4{fill:#FFFFFF;stroke:#000000;stroke-width:3;stroke-miterlimit:10;}
	.girl_st5{fill:#FF21C8;stroke:#000000;stroke-width:3;stroke-miterlimit:10;}
	.girl_st6{display:none;fill:#FFFFFF;stroke:#000000;stroke-width:3;stroke-miterlimit:10;}
	.girl_st7{fill:#FF6600;stroke:#000000;stroke-width:3;stroke-miterlimit:10;}
	.girl_st8{fill:#FF21C8;stroke:#000000;stroke-width:2;stroke-miterlimit:10;}
	.girl_st9{fill:none;}
	.girl_st10{fill:#E3B596;stroke:#000000;stroke-width:5;stroke-miterlimit:10;}
	.girl_st11{stroke:#000000;stroke-width:5;stroke-miterlimit:10;}
	.girl_st12{fill:#0F0606;stroke:#000000;stroke-width:5;stroke-miterlimit:10;}
	.girl_st13{fill:none;stroke:#000000;stroke-width:5;stroke-miterlimit:10;}
	.girl_st14{fill:#FFFFFF;stroke:#000000;stroke-width:5;stroke-miterlimit:10;}
	.girl_st15{fill:#FF85BC;stroke:#CF6D99;stroke-width:2;stroke-miterlimit:10;}
	.girl_st16{stroke:#000000;stroke-width:4;stroke-miterlimit:10;}
	.girl_st17{fill:#DB5800;stroke:#000000;stroke-width:2;stroke-miterlimit:10;}
	.girl_st18{fill:#FF6600;stroke:#000000;stroke-width:2;stroke-miterlimit:10;}
	.girl_st19{fill:#FFFFFF;stroke:#000000;stroke-width:2;stroke-miterlimit:10;}
	.girl_st20{fill:#FFB17D;stroke:#000000;stroke-width:2;stroke-miterlimit:10;}
</style>
<g id="Girl_Layer_4" class="girl_st0">
</g>
<g id="Girl_Layer_14">
	<path class="girl_st1" d="M597.7,912.5c33.06,10.9,68.43,19.47,102.54,13.76c7.47-9.68,12.54-21.21,12.71-31.27
		c-18.58-11.22-37.35-22.52-57.93-29.42c-20.58-6.9-43.41-9.11-65.39-2.42C587.92,880.89,590.83,899.06,597.7,912.5z"/>
	<path class="girl_st1" d="M842.98,927.26c-34.03,6.61-69.9,10.38-102.14-0.96c-5.64-11.52-8.63-24.65-7.1-35.46
		c19.98-9.18,40.16-18.42,61.36-22.66s43.8-3.12,64.06,7.43C857.83,894.88,851.93,913.91,842.98,927.26z"/>
</g>
<g id="Girl_Layer_18">
	<rect x="629.94" y="529.62" class="girl_st2" width="198.79" height="232.29"/>
</g>
<g id="Girl_Layer_9">
	<g id="Girl_Layer_13">
		<path class="girl_st3" d="M874.34,738.1c-1.07,15.63,10.49,31.27,26.09,35.32c5.75,1.49,11.81,1.53,17.7,0.78
			c4.17-0.54,8.31-1.48,12.12-3.21c11.34-5.15,18.59-17.56,17.69-29.72c-0.85-11.65-8.85-22.45-19.73-27.45
			c-10.88-5.01-24.2-4.27-34.66,1.42S874.81,731.17,874.34,738.1z"/>
		<path class="girl_st4" d="M832.18,558.77c9.24-8.98,25.04-8.99,36.48-2.72c11.44,6.27,19.14,17.48,24.67,29.06
			c12.16,25.48,15.79,54.29,29.22,79.15c5.51,10.2,12.56,19.52,19.29,29c3.49,4.92,6.97,10.02,8.41,15.82
			c1.45,5.8,0.48,12.51-3.93,16.63c-7.1,6.63-19.78,4.22-26.99,10.73c-2.18,1.97-3.63,4.59-5.67,6.7
			c-5.45,5.66-14.09,6.87-22.03,7.76c-5.32,0.6-10.81,1.18-15.95-0.32c-3.51-1.02-6.66-2.97-9.55-5.16
			c-17.33-13.21-25.08-34.85-30.57-55.55c-5.3-19.98-9.33-40.27-12.05-60.71C820.2,604.26,815.91,574.58,832.18,558.77z"/>
		<path class="girl_st5" d="M887.94,575.58c-27.71-1.77-55.06,12.96-68.71,36.38c0,0,3.86,5.26,3.84,5.7
			c6.36-8.28,15.04-14.6,24.44-19.15c18.85-9.11,36.82-11.8,47.23-9.22L887.94,575.58z"/>
		<path class="girl_st5" d="M923.94,667.54c-16.21,6.88-32.49,13.78-49.55,18.36c-17.06,4.58-35.06,6.77-52.58,4.08
			c0,0-1.49-17.86-1.57-17.36c7.95,2.69,16.55,2.76,24.93,2.18c25.27-1.75,50.13-9.28,72.13-21.84L923.94,667.54z"/>
	</g>
	<g id="Girl_Layer_19">
		<path class="girl_st3" d="M600.71,756.8c1.58,15.59-9.45,31.6-24.91,36.16c-5.7,1.68-11.76,1.92-17.67,1.36
			c-4.19-0.4-8.36-1.2-12.22-2.81c-11.51-4.77-19.16-16.94-18.67-29.12c0.47-11.67,8.1-22.73,18.81-28.09
			c10.71-5.36,24.04-5.07,34.69,0.27C591.39,739.9,600.01,749.88,600.71,756.8z"/>
		<path class="girl_st4" d="M636.92,576.16c-9.53-8.67-25.33-8.16-36.55-1.51s-18.55,18.11-23.69,29.86
			c-11.31,25.86-13.99,54.78-26.59,80.08c-5.17,10.37-11.91,19.92-18.32,29.62c-3.33,5.03-6.63,10.25-7.88,16.09
			c-1.25,5.84-0.07,12.52,4.47,16.49c7.31,6.39,19.9,3.56,27.33,9.83c2.25,1.9,3.78,4.47,5.89,6.51c5.64,5.47,14.31,6.4,22.28,7.03
			c5.33,0.42,10.84,0.82,15.93-0.84c3.47-1.14,6.56-3.18,9.37-5.48c16.89-13.77,23.91-35.66,28.72-56.53
			c4.64-20.14,7.99-40.55,10.04-61.08C650.39,621.24,653.7,591.43,636.92,576.16z"/>
		<path class="girl_st5" d="M548.81,687.91c16.43,6.34,32.93,12.7,50.13,16.71c17.2,4.01,35.26,5.61,52.69,2.34c0,0,0.9-17.9,1-17.4
			c-7.86,2.95-16.45,3.31-24.84,3c-25.32-0.92-50.41-7.62-72.81-19.44L548.81,687.91z"/>
		<path class="girl_st5" d="M581.75,594.81c27.64-2.69,55.45,11.13,69.87,34.08c0,0-3.68,5.39-3.65,5.83
			c-6.63-8.07-15.51-14.1-25.06-18.33c-19.14-8.48-37.19-10.57-47.51-7.65L581.75,594.81z"/>
	</g>
	<path class="girl_st4" d="M634.93,569.51c-5.56,41.49-7.94,71.47-17.37,102.86c-20.17,67.11-52.63,130.02-87.06,193.47
		c19.85,13.26,44.35,19.4,68.1,17.07c10.8-1.06,21.5-3.81,32.34-3.28c26.14,1.27,49.21,21.29,75.35,20.03
		c20.88-1.01,38.98-15.49,59.71-18.27c29.57-3.97,57.94,16.4,87.71,14.32c16.53-1.15,31.7-9.12,45.29-16.81
		c6.65-4.19,28.64-11.38,37.18-15.8c-14.58-12.08-31-47.35-40.19-63.9c-43.5-78.31-66.05-157.78-62.33-247.09
		c-0.77-1.01-5.81,0.31-19.46,8.11c-2.27,12.67-23.47,34.42-27.92,36.96c-25.37,14.49-74.89,11.03-83.19,5
		c-2.28-1.66-40.48-12.62-43.69-26.74C655.97,560.45,634.91,570.05,634.93,569.51z"/>
	<g id="Girl_Details">
		<path class="girl_st6" d="M621.03,664.7c19.25,0.67,36.5,2.4,54.3,4.73"/>
		<path class="girl_st6" d="M680.46,669.77c-1.27-0.42-50.19-6.1-60.68-5.24l2.53-10.27c19.67,1.29,39.92,3.26,59.44,5.89
			C681.75,660.15,680.82,669.89,680.46,669.77z"/>
		<path class="girl_st5" d="M785.64,660.65c17.6-2.07,37.96-6.08,54.89-10.28l2.18,11.91c0,0-47.46,12.28-56.94,10.12L785.64,660.65z"/>
		<path class="girl_st5" d="M681.75,662.06c-18.94-2.07-40.72-5.91-58.93-10.11l-2.48,11.74c0,0,51.06,12.28,61.26,10.12L681.75,662.06z"
			/>
		<path class="girl_st6" d="M791.85,670.91c16.96-2.3,33.85-5.18,50.61-8.63"/>
		<g id="Girl_Layer_10">
			<path class="girl_st7" d="M672.98,714.2l4.52-59.18l112.04-0.75c0,0,10.24,65.06,9.07,64.42c-15.4,12.17-34.94,18.69-54.55,19.39
				c-19.61,0.7-39.25-4.26-56.75-13.13C681.88,722.2,676.16,718.46,672.98,714.2z"/>
			<polygon class="girl_st7" points="768.85,609.91 767.26,654.26 785.67,654.26 786.26,597.17 769.15,601.93 			"/>
			<polygon class="girl_st7" points="682.91,613.91 681.3,654.98 698.97,654.98 700.07,607.18 682.96,600.13 			"/>
		</g>
		<path class="girl_st5" d="M661.05,576.66c-0.11,1.55-9.43,25.18-9.43,25.18s26.02-8.46,26.56-8.52l-2.36,24.2
			c8.06-4.86,15.98-9.93,23.29-15.22c1.27,8.95,2.54,17.9,4.11,26.91c6.34-6.72,12.67-13.43,17.49-19.9
			c3.33,7.66,6.33,15.46,8.87,22.85c6.06-6.79,12.13-13.58,16.13-21.82c4.73,7.13,9.64,14.14,14.36,22.21
			c4.29-9.05,8.59-18.11,13.13-23.48c5.36,5.36,10.73,10.72,16.72,17.38c-0.22-9.37-0.43-18.74,0.73-26.89
			c7.25,2.64,14.49,5.29,23.06,8.95c-2.11-9.24-4.91-18.32-7.93-24.37c4.95,0.08,9.9,0.15,16.04,1.29
			c-2.53-4.18-8.12-14.86-10.56-17.71c-17.01,23.68-47.2,41.92-76.24,39.41c-9.52-0.82-18.83-3.25-27.97-6.04
			C690.81,596.12,672.43,585.74,661.05,576.66z"/>
		<g id="Girl_Layer_20">
			<path class="girl_st8" d="M888.23,784.81c-2.4,0.35-2.81-0.25-5.98,2.25c-3.17,2.49-4.03,6.7-4.42,10.76c-0.93-2.72-5.75-4.82-8.83-6
				c-1.97-0.75-4.14-0.87-6.23-0.65c-7.45,0.76-11.96,6.49-14.26,13.75c-0.51-1.95-3.78-6-6.04-7.49
				c-5.91-3.88-14.89-3.39-21.58-1.18s-10.28,7.1-12.83,13.77c-3.91-8.05-13.78-9.7-21.07-8.29c-7.29,1.42-11.84,5.87-15.28,12.57
				c-0.66-5.62-7.77-7.6-12.62-8.23c-9.23-1.19-19.07,3.12-24.11,11.09c-2.5-5.79-8.05-9.79-14.22-11.24
				c-6.17-1.45-12.88-0.34-18.28,3.03c-3.01,1.88-5.69,4.55-6.88,7.94c-2.43-7.37-7.65-12.58-14.02-13.74
				c-3.41-0.62-6.93-0.1-10.29,0.79c-6.14,1.62-12.35,4.77-15.42,10.42c0.08-5.93-4.75-10.23-9.76-12.34
				c-4.98-2.1-10.59-2.78-15.85-1.54c-5.25,1.24-10.1,4.49-12.98,9.13c-0.03-5.85-4.03-11.61-9.17-14.9
				c-4.93-3.15-10.98-4.43-16.73-3.54c-5.75,0.89-9.13,5.42-13.47,8.95c1.68-4.83-1.5-9.26-7.68-10.5l-5.1,10.32
				c6.35,1.24,10.22,5.85,8.49,10.68c4.47-3.53,7.94-8.06,13.85-8.95c5.92-0.89,12.14,0.39,17.21,3.54
				c5.28,3.28,9.39,9.05,9.43,14.9c2.96-4.65,7.94-7.89,13.34-9.13c5.4-1.24,11.17-0.56,16.3,1.54c5.15,2.11,10.11,6.41,10.03,12.34
				c3.16-5.66,9.54-8.81,15.86-10.42c3.45-0.88,7.07-1.41,10.58-0.79c6.56,1.17,11.92,6.37,14.42,13.74
				c1.23-3.39,3.98-6.06,7.08-7.94c5.55-3.37,12.45-4.48,18.79-3.03c6.34,1.45,12.05,5.45,14.62,11.24
				c5.18-7.97,15.31-12.28,24.79-11.09c4.98,0.62,10.24,3.11,10.92,8.73c3.54-6.7,10.27-11.65,17.77-13.07
				c7.5-1.42,15.59,0.73,19.61,8.79c2.62-6.67,8.38-12.06,15.25-14.27s14.73-1.2,20.8,2.68c2.33,1.49,4.51,3.54,5.03,5.49
				c2.37-7.25,9.58-12.49,17.24-13.25c2.16-0.21,4.38-0.1,6.41,0.65c3.17,1.18,5.55,3.78,6.51,6.5c0.4-4.06,2.83-7.77,6.09-10.26
				s3.74-3.08,7.82-3.68L888.23,784.81z"/>
		</g>
		<g id="Girl_Layer_21">
			<path class="girl_st8" d="M864,731.74c-7.48,0.76-9.29,5.15-11.6,12.4c-8.76-15.49-34.91-10.27-40.11,6.1
				c-8.17-15.96-30.03-9.05-36.49,4.28c-4.46-15.57-28.63-8.77-34.86,2.36c-6.58-15.51-32.85-15.87-39.54-0.27
				c-5.31-19.49-30.98-16.66-39.89-2.53c-2.04-17.74-30.81-18.95-38.73-4.74c-0.21-15.01-16.57-18.89-25.26-18.92l-5.1,10.81
				c8.7,0.03,27.43,3.82,27.67,18.96c8.12-14.15,37.47-13.11,39.67,4.74c9.13-14.09,35.34-17.02,40.86,2.53
				c6.93-15.63,33.69-15.24,40.49,0.27c6.35-11.08,31.09-17.99,35.71-2.36c6.65-13.36,29.04-20.21,37.38-4.28
				c5.43-16.44,32.08-21.57,41.08-6.1c2.37-7.25,5.33-11.8,12.99-12.56L864,731.74z"/>
		</g>
	</g>
</g>
<g id="Girl_Layer_2">
	
		<ellipse transform="matrix(0.9972 -0.0744 0.0744 0.9972 -26.2383 54.5487)" class="girl_st10" cx="719" cy="379.43" rx="253" ry="203"/>
	<g id="Girl_Layer_3">
		
			<ellipse transform="matrix(0.058 -0.9983 0.9983 0.058 133.1475 1056.2966)" class="girl_st11" cx="626.28" cy="457.6" rx="42" ry="36.5"/>
		
			<ellipse transform="matrix(0.058 -0.9983 0.9983 0.058 329.9612 1235.1664)" class="girl_st12" cx="819.47" cy="442.74" rx="42" ry="36.5"/>
		<path class="girl_st13" d="M850.82,422.93c4.05-2.69,11.17-8.11,16.81-11.57"/>
		<path class="girl_st13" d="M855.36,434.25c3.94-1.56,7.89-3.13,11.83-4.69"/>
		<path class="girl_st14" d="M581.03,429.75c5.25,1.17,10.46,2.51,15.62,4.02"/>
		<path class="girl_st14" d="M580.07,443.73c3.76-0.1,7.52,0.25,11.2,1.02"/>
		<path class="girl_st13" d="M693.75,501.32c9.55,6.31,21.18,9.42,32.61,8.72c11.43-0.7,22.59-5.21,31.23-12.73"/>
		
			<ellipse transform="matrix(0.9984 -0.0559 0.0559 0.9984 -26.5489 48.9607)" class="girl_st15" cx="862.51" cy="499.38" rx="27" ry="16.85"/>
		
			<ellipse transform="matrix(0.9991 -0.0434 0.0434 0.9991 -21.8607 25.9159)" class="girl_st15" cx="586.2" cy="516.65" rx="27" ry="16.85"/>
	</g>
	<g id="Girl_Layer_6">
		<path class="girl_st16" d="M894.75,397.67c-19.63-15.29-50.38-51.18-74.22-56.36c-7.65-1.66-15.58-1.2-23.41-1.01
			c-40.92,1-84.19-6.67-115.4-33.15c-5.23-79.01-5.27-119.75-8.73-125.61c60.17-11,123.61-3.38,179.47,21.56
			c14.08,6.29,27.74,13.68,40.08,22.93c9.07,6.8,17.38,14.56,25.42,22.55c12.3,12.22,24.16,25.21,32.24,40.55
			c10.9,20.69,18.26,44.61,20.79,67.86c2.41,22.1-6.44,68.56-7.77,68.56C961.9,425.56,915.21,413.61,894.75,397.67z"/>
		<path class="girl_st16" d="M666.4,185.37c0,0,6.94,122.2,6.58,122.66c-17.62,25.2-40.99,45.57-66.28,60.71
			c-15.43,12.86-38.97,15.12-53.52,28.92c-11.85,11.24-15.59,32.02-25.54,44.89c-9.96,12.87-18.68,28.43-33.7,34.37
			c-11.46-10.12-17.35-35.85-21.78-53c-4.43-17.14-6.53-34.97-4.73-52.76c3.94-31.14,15.5-61.33,33.46-87.37
			c17.95-26.04,42.27-47.87,68.33-62.18c30.21-17.41,62.93-30.67,96.89-39.28C667.12,183.9,667.33,185.95,666.4,185.37z"/>
	</g>
</g>
<g id="Girl_Layer_12" class="girl_st0">
</g>
<g id="Girl_Layer_1" class="girl_st0">
</g>
<g id="Girl_Layer_5">
	<g id="Girl_Layer_15">
		<path class="girl_st1" d="M895.45,520.71c-4.13,6.15-8.46,13.19-7,20.45c0.62,3.07,2.24,5.84,3.96,8.46
			c4.88,7.42,10.81,14.14,19.6,20.89c-5.74,1.87-9.91,6.7-13.78,11.32c-0.88,1.06-1.78,2.14-2.29,3.42
			c-1.3,3.33,0.37,7.03,2.2,10.09c4.92,8.2,11.37,15.48,19.66,20.94c-3.64,1.97-7.05,4.36-10.16,7.1c-2.21,1.94-4.37,4.28-4.77,7.18
			c-0.43,3.08,1.2,6.05,2.9,8.66c3.23,4.95,6.92,9.6,12.01,13.28c-6.08,3.22-12.45,6.7-15.98,12.59c-0.97,1.61-1.7,3.43-1.62,5.3
			c0.09,2.22,1.3,4.23,2.51,6.09c7.07,10.87,15.67,20.76,22.89,27.44c12.93-2.22,25.17-8.26,34.79-17.16
			c1.68-1.56,3.37-3.36,3.72-5.62c0.28-1.84-0.37-3.68-1.06-5.41c-4.01-10-9.8-19.29-16.76-27.1c4.82-1.9,9.11-4.9,13.24-8.02
			c3.32-2.51,6.87-5.67,6.93-9.82c0.04-2.94-1.72-5.56-3.41-7.97c-4.35-6.2-8.71-12.4-11.51-17.42
			c7.58-6.38,13.95-14.18,18.68-22.87c1.18-2.17,2.29-4.59,1.86-7.03c-0.41-2.32-2.13-4.16-3.77-5.85
			c-4.58-4.73-9.16-9.45-14.37-12.62c4.79-4.52,9.62-9.13,13.18-14.67c3.56-5.54,5.79-12.19,4.86-18.7
			c-0.66-4.64-2.86-8.9-5.02-13.06c-6.51-12.54-13.03-25.08-19.54-37.62L895.45,520.71z"/>
		<path class="girl_st1" d="M927.63,702.82c-6.34,11.34-11.53,24.99-6.66,37.03c3.43,8.47,11.39,14.48,19.99,17.66
			c8.6,3.17,17.88,3.89,31.2,4.4c-6.95-2.23-13.02-7.04-16.78-13.27c-3.76-6.23-5.16-13.84-2.3-22.27
			c0.4-5.52-1.38-11.16-4.87-15.46c-3.49-4.3-8.65-7.22-14.15-7.99C931.01,702.48,927.74,702.63,927.63,702.82z"/>
	</g>
	<g id="Girl_Layer_16">
		<path class="girl_st1" d="M516.08,719.71c6.31,11.34,11.48,24.99,6.63,37.03c-3.41,8.47-11.34,14.48-19.91,17.66
			c-8.56,3.17-17.81,3.89-31.08,4.4c6.92-2.23,12.97-7.04,16.72-13.27c3.74-6.23,5.14-13.84,2.29-22.27
			c-0.39-5.52,1.38-11.16,4.85-15.46c3.47-4.3,8.62-7.22,14.09-7.99C512.71,719.37,515.97,719.52,516.08,719.71z"/>
		<path class="girl_st1" d="M548.13,537.6c4.12,6.15,8.43,13.19,6.97,20.45c-0.61,3.07-2.23,5.84-3.94,8.46
			c-4.86,7.42-10.77,14.14-19.52,20.89c5.71,1.87,9.87,6.7,13.73,11.32c0.88,1.06,1.78,2.14,2.28,3.42c1.3,3.33-0.36,7.03-2.2,10.09
			c-4.9,8.2-11.33,15.48-19.58,20.94c3.63,1.97,7.03,4.36,10.12,7.1c2.2,1.94,4.35,4.28,4.75,7.18c0.43,3.08-1.19,6.05-2.89,8.66
			c-3.21,4.95-6.89,9.6-11.96,13.28c6.05,3.22,12.4,6.7,15.92,12.59c0.96,1.61,1.69,3.43,1.62,5.3c-0.09,2.22-1.29,4.23-2.5,6.09
			c-7.05,10.87-15.61,20.76-22.8,27.44c-12.88-2.22-25.08-8.26-34.65-17.16c-1.68-1.56-3.36-3.36-3.71-5.62
			c-0.28-1.84,0.37-3.68,1.06-5.41c4-10,9.76-19.29,16.7-27.1c-4.8-1.9-9.08-4.9-13.19-8.02c-3.31-2.51-6.85-5.67-6.91-9.82
			c-0.04-2.94,1.71-5.56,3.4-7.97c4.34-6.2,8.67-12.4,11.47-17.42c-7.55-6.38-13.89-14.18-18.6-22.87
			c-1.18-2.17-2.28-4.59-1.86-7.03c0.41-2.32,2.12-4.16,3.76-5.85c4.56-4.73,9.13-9.45,14.32-12.62
			c-4.78-4.52-9.58-9.13-13.13-14.67s-5.77-12.19-4.84-18.7c0.66-4.64,2.85-8.9,5-13.06c6.49-12.54,12.98-25.08,19.47-37.62
			L548.13,537.6z"/>
	</g>
	<g id="Girl_Layer_8">
		<g id="Girl_Layer_7">
			<path class="girl_st17" d="M999.71,486.03c13.34,8.71,22.15,22.8,29.31,37.03c7.17,14.23,13.23,29.2,22.96,41.81
				c9.73,12.61,24.1,22.86,39.11,23.66c-16.85,6.49-36.16,6.36-51.99,0.13c-1.89,13.86,1.55,28.37,9,40.62
				c-21.11-9.7-39.38-25.51-52-45.02c-12.62-19.51-19.56-42.65-20.72-64.36c-2.69-18.87-10.01-37.06-21.13-52.54
				c5.22-1,10.48,1.08,15.39,3.11C983.24,476.11,995.67,483.39,999.71,486.03z"/>
			<path class="girl_st18" d="M989.27,492.45c7.08,8.34,10.38,19.31,11.63,30.18c1.25,10.87,0.63,21.85,0.8,32.79
				c0.36,22.66,4.31,45.63,14.77,65.73c5.6,10.75,13.75,21.11,24.84,24.38c-12.11,1.94-24.58,1.57-36.55-1.09
				c-5.48-1.21-11.32-3.25-14.96-8.29c-3,18.55-5.91,38.15-0.94,55.79c-14.15-8.89-23.73-23.86-28.67-39.82
				c-4.94-15.96-5.59-32.94-4.88-49.63c0.71-16.69,2.75-33.32,3.05-50.02c0.25-14.22-0.79-28.66-5.48-42.1
				c-4.93-14.13-6.28-28.16-16.71-39.1c10.81-1.94,14.44-0.83,25.36,0.34c4.75,0.51,9.56,1.34,13.78,3.58
				C983.27,479.44,986.2,488.82,989.27,492.45z"/>
			<path id="Girl__x3C_Path_x3E_ribbon_1_" class="girl_st18" d="M1019.85,431.16c7.44,1.63,14.23,6.09,18.68,12.27
				c1.46,2.03,2.7,4.29,3.13,6.76c0.83,4.82-1.55,9.69-4.87,13.29c-3.31,3.59-7.51,6.22-11.35,9.25c-3.84,3.03-7.46,6.69-8.91,11.36
				c-1.26,4.09-0.74,8.61-2.26,12.61c-2.29,6.01-9.01,9.58-15.44,9.4c-6.42-0.19-12.42-3.57-17.04-8.05
				c-4.61-4.48-8.04-10.01-12.6-15.44c-3.54-20.95-6.04-42.07-7.14-63.41C981.28,423.65,1000.75,426.97,1019.85,431.16z"/>
			<path id="Girl__x3C_Path_x3E_ribbon" class="girl_st18" d="M1013.4,380.93c4.63-2.9,10.1-4.43,15.55-4.35c4.26,0.06,9.04,1.5,10.89,5.34
				c1.25,2.6,0.86,5.65,0.44,8.5c-0.38,2.59-0.77,5.17-1.15,7.76c-0.31,2.06-0.61,4.2-0.01,6.19c0.72,2.43,2.64,4.28,4.47,6.04
				c3.33,3.19,6.64,6.5,8.82,10.56c2.18,4.06,3.1,9.03,1.41,13.31c-1.15,2.92-3.4,5.29-5.91,7.18c-2.52,1.89-5.57,3.41-8.23,2.79
				c-14.61,0.4-29.3-2.65-42.55-8.83c-5.12-2.39-10.07-5.26-16.78-6.23c3.18-10.22,6.73-20.45,12.48-29.48
				C998.59,390.68,1007.56,384.58,1013.4,380.93z"/>
			<path class="girl_st19" d="M1017.01,410.39c5.34-1.39,10.86-2.07,16.38-2.01"/>
			<path class="girl_st19" d="M1000.19,469.24c3.81,3.51,7.19,7.48,10.06,11.79"/>
			<path class="girl_st17" d="M442.92,540.51c-12.85,8.71-21.33,22.8-28.23,37.03s-12.74,29.2-22.11,41.81
				c-9.37,12.61-23.21,22.86-37.66,23.66c16.23,6.49,34.82,6.36,50.06,0.13c1.82,13.86-1.49,28.37-8.66,40.62
				c20.33-9.7,37.92-25.51,50.07-45.02c12.15-19.51,18.84-42.65,19.95-64.36c2.59-18.87,9.63-37.06,20.34-52.54
				c-5.03-1-10.09,1.08-14.82,3.11C458.78,530.6,446.81,537.88,442.92,540.51z"/>
			<path class="girl_st18" d="M452.97,546.93c-6.81,8.34-10,19.31-11.2,30.18c-1.21,10.87-0.6,21.85-0.77,32.79
				c-0.35,22.66-4.15,45.63-14.22,65.73c-5.39,10.75-13.24,21.11-23.91,24.38c11.66,1.94,23.67,1.57,35.19-1.09
				c5.28-1.21,10.9-3.25,14.4-8.29c2.89,18.55,5.69,38.15,0.91,55.79c13.62-8.89,22.85-23.86,27.61-39.82
				c4.75-15.96,5.39-32.94,4.7-49.63c-0.68-16.69-2.65-33.32-2.93-50.02c-0.24-14.22,0.77-28.66,5.28-42.1
				c4.75-14.13,6.05-28.16,16.09-39.1c-10.41-1.94-13.9-0.83-24.42,0.34c-4.57,0.51-9.21,1.34-13.27,3.58
				C458.76,533.92,455.93,543.31,452.97,546.93z"/>
			<path id="Girl__x3C_Path_x3E_ribbon_3_" class="girl_st18" d="M423.53,485.64c-7.16,1.63-13.7,6.09-17.98,12.27
				c-1.41,2.03-2.6,4.29-3.01,6.76c-0.8,4.82,1.49,9.69,4.68,13.29c3.19,3.59,7.24,6.22,10.93,9.25c3.69,3.03,7.18,6.69,8.57,11.36
				c1.22,4.09,0.71,8.61,2.18,12.61c2.2,6.01,8.68,9.58,14.87,9.4c6.19-0.19,11.96-3.57,16.4-8.05c4.44-4.48,7.74-10.01,12.13-15.44
				c3.41-20.95,5.82-42.07,6.88-63.41C460.67,478.13,441.92,481.45,423.53,485.64z"/>
			<path id="Girl__x3C_Path_x3E_ribbon_2_" class="girl_st18" d="M429.74,435.41c-4.45-2.9-9.72-4.43-14.98-4.35c-4.1,0.06-8.7,1.5-10.49,5.34
				c-1.21,2.6-0.83,5.65-0.42,8.5c0.37,2.59,0.74,5.17,1.11,7.76c0.29,2.06,0.58,4.2,0.01,6.19c-0.69,2.43-2.55,4.28-4.31,6.04
				c-3.2,3.19-6.4,6.5-8.49,10.56c-2.1,4.06-2.98,9.03-1.36,13.31c1.11,2.92,3.27,5.29,5.69,7.18c2.42,1.89,5.36,3.41,7.92,2.79
				c14.07,0.4,28.22-2.65,40.97-8.83c4.93-2.39,9.7-5.26,16.16-6.23c-3.06-10.22-6.48-20.45-12.02-29.48
				C444,445.16,435.36,439.07,429.74,435.41z"/>
			<path class="girl_st19" d="M426.26,464.87c-5.14-1.39-10.46-2.07-15.77-2.01"/>
			<path class="girl_st19" d="M442.46,523.72c-3.67,3.51-6.93,7.48-9.69,11.79"/>
			<g id="Girl_Layer_17flower">
				<path class="girl_st20" d="M939.19,375.06c0.14-3.69,1.79-7.3,4.49-9.83s6.41-3.93,10.1-3.83c4.36,0.12,8.62,2.39,11.12,5.96
					s3.17,8.37,1.8,13c-1.92,5.13-5.75,9.3-9.76,13.04c-4,3.74-8.3,7.24-11.18,11.7C942.7,394.87,938.83,384.49,939.19,375.06z"/>
				<path class="girl_st20" d="M948.74,413.36c5.01-4.98,10.34-9.64,15.94-13.95c4.66-3.59,9.64-7,15.32-8.55s12.22-1,16.77,2.74
					c3.2,2.62,5.16,6.69,5.22,10.82c0.06,4.13-1.78,8.26-4.9,10.97c-4.36,3.79-10.52,4.58-16.3,4.73
					C968.98,420.42,957.12,418.72,948.74,413.36z"/>
				<path class="girl_st20" d="M945.53,479.13c2.29,2.73,4.69,5.55,7.93,7.02c4.37,1.96,9.64,1.07,13.74-1.4
					c1.58-0.95,3.04-2.14,4.09-3.65c1.39-2.01,1.97-4.48,2.14-6.91c0.56-8.37-3.6-16.5-9.39-22.58
					c-5.79-6.07-13.12-10.41-20.97-14.8C946.22,450.93,936.86,468.76,945.53,479.13z"/>
				<path class="girl_st20" d="M955.83,425.24c2.33-10.71,7.7-20.75,15.32-28.62c3.52-3.63,7.73-6.92,12.71-7.81
					c3.52-0.63,7.19,0,10.5,1.36c4.49,1.85,8.72,5.63,8.96,10.47c0.22,4.32-2.79,8.18-6.25,10.78
					C985.37,420.19,968.88,418.62,955.83,425.24z"/>
				<path class="girl_st20" d="M993.07,378.86c5.86-5.1,15.39-3.58,21.38,1.37c4.22,3.49,7.22,8.53,7.91,13.97
					c0.69,5.44-1.03,11.2-4.85,15.13c-4.52,4.65-11.27,6.32-17.71,7.03c-11.89,1.31-24.07,0.1-36.16,3.27
					c5.95-12.85,13.58-24.92,22.63-35.81C989.62,379.79,994.09,375.57,993.07,378.86z"/>
				<path class="girl_st20" d="M994.24,408.51c3.3-1.65,6.8-3.34,10.49-3.11c2.25,0.14,4.4,1,6.36,2.1c5.06,2.84,9.2,7.57,10.57,13.2
					s-0.41,12.11-4.96,15.7c-3.99,3.14-9.4,3.78-14.47,3.59c-8.29-0.3-16.7-2.56-23.24-7.66c-4.02-3.14-7.26-7.27-11.63-9.89
					c0.72-1.13,1.92-1.95,2.69-2.41C978.34,414.57,987.9,411.67,994.24,408.51z"/>
				<path class="girl_st20" d="M996.87,468.7c7.62,2.54,16.68-0.58,21.32-7.13c4.64-6.55,4.65-15.97,0.22-22.66
					c-1.23-1.87-2.8-3.55-4.73-4.68c-3.55-2.08-7.94-2.09-12.01-1.51c-2.98,0.42-5.96,1.14-8.61,2.57c-3.97,2.14-6.97,5.76-9.15,9.7
					c-1.72,3.1-3.01,6.7-2.24,10.16c0.78,3.55,3.55,6.28,6.27,8.68C991.61,467.08,996.46,470.34,996.87,468.7z"/>
				<path class="girl_st20" d="M993.78,417.66c4.24,0.74,8.5,2.45,11.24,5.77c1.21,1.47,2.08,3.21,2.66,5.02
					c1.41,4.4,1.12,9.32-0.8,13.52c-1.92,4.2-5.44,7.65-9.69,9.46c-7.67,3.28-16.63,1.11-24.06-2.66
					c-7.43-3.78-14.04-9.08-22.15-12.25c0.96-3.45,4-5.84,6.88-7.96c5.43-3.99,11.01-7.93,17.34-10.23
					C981.53,416.03,988.42,416.72,993.78,417.66z"/>
				<path class="girl_st20" d="M972.36,424.89c-4.08-0.24-8.57-0.65-11.43-3.57c-1.33-1.35-2.16-3.12-2.72-4.94
					c-2.7-8.72,1.01-19.03,8.65-24.02c7.65-5,18.57-4.26,25.47,1.72c5.99,5.19,8.51,14.76,4.12,21.35
					c-4.14,6.21-12.39,7.86-19.77,8.98C972.54,425.05,967.54,425.35,972.36,424.89z"/>
				<path class="girl_st20" d="M972.76,474.65c3.97,3.33,9.76,4.31,14.63,2.54c4.87-1.77,8.67-6.18,9.78-11.25
					c1.11-5.06-0.48-10.62-4.03-14.4c-2.93-3.11-6.93-4.95-10.89-6.57c-8.53-3.47-17.35-6.24-26.21-8.01
					C960.4,450.2,962.5,466.05,972.76,474.65z"/>
				<path class="girl_st20" d="M965.21,368.91c2.72-5.45,9.36-8.23,15.42-7.53c6.05,0.7,11.45,4.37,15.45,8.96
					c3.3,3.78,5.89,9.11,3.89,13.71c-1.72,3.97-6.16,5.88-10.25,7.3c-10.64,3.7-21.58,6.52-31.92,10.68
					C958.33,389.8,960.91,377.5,965.21,368.91z"/>
				<path class="girl_st20" d="M938.76,431.09c-4.77,11.19-7.65,23.19-8.49,35.33c-0.23,3.34-0.25,6.93,1.55,9.76
					c2.51,3.95,8.06,5.18,12.49,3.67c4.43-1.5,7.82-5.18,10.18-9.22c2.13-3.64,3.62-7.86,3.03-12.04c-0.39-2.76-1.66-5.32-3.03-7.75
					C950.12,443.13,944.46,436.15,938.76,431.09z"/>
				<path class="girl_st20" d="M938.24,431.17c-9.79-9.78-14.72-24.2-12.97-37.92c0.69-5.44,2.47-10.91,6.08-15.04
					c0.79-0.9,1.68-1.75,2.77-2.26c1.25-0.58,2.7-0.68,4.06-0.44c4.3,0.77,7.47,4.72,8.58,8.94c1.11,4.22,0.55,8.68-0.13,12.99
					C944.79,409.1,942.05,420.62,938.24,431.17z"/>
				<path class="girl_st20" d="M938.62,432.08c2.08-8.53,7.78-16.12,15.4-20.5c3.43-1.97,7.69-3.3,11.31-1.71
					c2.01,0.88,3.56,2.55,4.88,4.31c1.17,1.55,2.22,3.23,2.79,5.09c1.62,5.29-1.12,11.3-5.67,14.46s-10.49,3.8-15.94,2.82
					S940.88,433.12,938.62,432.08z"/>
				<path class="girl_st20" d="M946.56,400.29c0.65-4.29,1.87-8.56,4.22-12.21s5.9-6.65,10.1-7.72c6.25-1.59,13.39,1.69,16.25,7.47
					c0.78,1.57,1.26,3.35,0.95,5.08c-0.22,1.18-0.8,2.26-1.41,3.29c-3.99,6.74-10.32,12.73-18.5,14.03
					c-6.34,2.49-11.97,6.75-16.64,13.42C943.23,415.32,945.53,407.13,946.56,400.29z"/>
				<path class="girl_st20" d="M943.01,434.45c4.42,4.86,8.23,10.29,11.3,16.1c3.26,6.17,6.15,13.27,12.39,16.39
					c4.12,2.05,9.31,1.85,13.18-0.63c3.88-2.48,6.25-7.18,5.81-11.76c-0.44-4.58-3.74-8.79-7.11-10.27
					c-6.66-5.5-15.68-6.92-24.23-8.14C950.67,435.62,947,435.1,943.01,434.45z"/>
				<path class="girl_st20" d="M501.19,429.54c-0.14-3.69-1.73-7.3-4.32-9.83c-2.6-2.52-6.17-3.93-9.73-3.83
					c-4.2,0.12-8.3,2.39-10.71,5.96c-2.41,3.57-3.05,8.37-1.73,13c1.85,5.13,5.54,9.3,9.4,13.04s7.99,7.24,10.77,11.7
					C497.82,449.35,501.54,438.98,501.19,429.54z"/>
				<path class="girl_st20" d="M492,467.85c-4.83-4.98-9.96-9.64-15.35-13.95c-4.49-3.59-9.28-7-14.75-8.55
					c-5.47-1.56-11.77-1-16.15,2.74c-3.08,2.62-4.96,6.69-5.02,10.82s1.72,8.26,4.72,10.97c4.2,3.79,10.13,4.58,15.69,4.73
					C472.52,474.91,483.93,473.2,492,467.85z"/>
				<path class="girl_st20" d="M495.09,533.61c-2.2,2.73-4.51,5.55-7.64,7.02c-4.2,1.96-9.28,1.07-13.23-1.4
					c-1.52-0.95-2.93-2.14-3.94-3.65c-1.34-2.01-1.9-4.48-2.06-6.91c-0.54-8.37,3.47-16.5,9.04-22.58
					c5.58-6.07,12.63-10.41,20.19-14.8C494.43,505.42,503.44,523.25,495.09,533.61z"/>
				<path class="girl_st20" d="M485.17,479.72c-2.24-10.71-7.41-20.75-14.75-28.62c-3.39-3.63-7.45-6.92-12.24-7.81
					c-3.39-0.63-6.93,0-10.11,1.36c-4.32,1.85-8.39,5.63-8.63,10.47c-0.21,4.32,2.69,8.18,6.02,10.78
					C456.73,474.67,472.61,473.11,485.17,479.72z"/>
				<path class="girl_st20" d="M448.19,462.99c-3.18-1.65-6.55-3.34-10.1-3.11c-2.16,0.14-4.23,1-6.12,2.1
					c-4.87,2.84-8.86,7.57-10.17,13.2c-1.31,5.64,0.39,12.11,4.78,15.7c3.84,3.14,9.05,3.78,13.93,3.59
					c7.98-0.3,16.08-2.56,22.38-7.66c3.87-3.14,6.99-7.27,11.2-9.89c-0.69-1.13-1.85-1.95-2.59-2.41
					C463.5,469.05,454.3,466.15,448.19,462.99z"/>
				<path class="girl_st20" d="M449.31,433.34c-5.65-5.1-14.82-3.58-20.59,1.37c-4.06,3.49-6.95,8.53-7.62,13.97
					c-0.67,5.44,0.99,11.2,4.67,15.13c4.35,4.65,10.85,6.32,17.06,7.03c11.44,1.31,23.18,0.1,34.82,3.27
					c-5.73-12.85-13.08-24.92-21.79-35.81C452.64,434.28,448.33,430.05,449.31,433.34z"/>
				<path class="girl_st20" d="M445.65,523.19c-7.33,2.54-16.06-0.58-20.53-7.13c-4.47-6.55-4.48-15.97-0.21-22.66
					c1.19-1.87,2.69-3.55,4.55-4.68c3.42-2.08,7.64-2.09,11.56-1.51c2.87,0.42,5.74,1.14,8.29,2.57c3.82,2.14,6.71,5.76,8.81,9.7
					c1.65,3.1,2.9,6.7,2.16,10.16c-0.75,3.55-3.42,6.28-6.04,8.68C450.72,521.56,446.05,524.82,445.65,523.19z"/>
				<path class="girl_st20" d="M448.63,472.15c-4.08,0.74-8.19,2.45-10.82,5.77c-1.17,1.47-2,3.21-2.56,5.02
					c-1.36,4.4-1.08,9.32,0.77,13.52c1.85,4.2,5.24,7.65,9.33,9.46c7.38,3.28,16.01,1.11,23.17-2.66s13.52-9.08,21.33-12.25
					c-0.92-3.45-3.85-5.84-6.63-7.96c-5.23-3.99-10.6-7.93-16.7-10.23C460.43,470.51,453.79,471.2,448.63,472.15z"/>
				<path class="girl_st20" d="M469.26,479.38c3.93-0.24,8.25-0.65,11.01-3.57c1.28-1.35,2.08-3.12,2.62-4.94
					c2.6-8.72-0.97-19.03-8.33-24.02c-7.36-5-17.88-4.26-24.53,1.72c-5.76,5.19-8.19,14.76-3.97,21.35
					c3.99,6.21,11.93,7.86,19.04,8.98C469.08,479.53,473.9,479.83,469.26,479.38z"/>
				<path class="girl_st20" d="M468.87,529.13c-3.82,3.33-9.4,4.31-14.09,2.54s-8.35-6.18-9.42-11.25c-1.07-5.06,0.46-10.62,3.88-14.4
					c2.82-3.11,6.68-4.95,10.49-6.57c8.22-3.47,16.71-6.24,25.23-8.01C480.78,504.68,478.75,520.53,468.87,529.13z"/>
				<path class="girl_st20" d="M476.15,423.39c-2.62-5.45-9.02-8.23-14.84-7.53c-5.83,0.7-11.02,4.37-14.88,8.96
					c-3.18,3.78-5.67,9.11-3.74,13.71c1.66,3.97,5.94,5.88,9.87,7.3c10.24,3.7,20.78,6.52,30.74,10.68
					C482.76,444.29,480.28,431.98,476.15,423.39z"/>
				<path class="girl_st20" d="M501.61,485.57c4.59,11.19,7.37,23.19,8.18,35.33c0.22,3.34,0.24,6.93-1.49,9.76
					c-2.41,3.95-7.76,5.18-12.02,3.67c-4.27-1.5-7.53-5.18-9.8-9.22c-2.05-3.64-3.48-7.86-2.92-12.04c0.37-2.76,1.59-5.32,2.92-7.75
					C490.67,497.61,496.13,490.64,501.61,485.57z"/>
				<path class="girl_st20" d="M502.11,485.65c9.42-9.78,14.17-24.2,12.48-37.92c-0.67-5.44-2.38-10.91-5.86-15.04
					c-0.76-0.9-1.62-1.75-2.67-2.26c-1.21-0.58-2.6-0.68-3.91-0.44c-4.14,0.77-7.19,4.72-8.26,8.94c-1.07,4.22-0.53,8.68,0.13,12.99
					C495.81,463.58,498.45,475.1,502.11,485.65z"/>
				<path class="girl_st20" d="M501.74,486.57c-2-8.53-7.49-16.12-14.83-20.5c-3.31-1.97-7.4-3.3-10.89-1.71
					c-1.93,0.88-3.43,2.55-4.7,4.31c-1.13,1.55-2.14,3.23-2.68,5.09c-1.56,5.29,1.08,11.3,5.46,14.46c4.38,3.16,10.1,3.8,15.35,2.82
					C494.69,490.05,499.57,487.6,501.74,486.57z"/>
				<path class="girl_st20" d="M494.1,454.77c-0.62-4.29-1.8-8.56-4.06-12.21c-2.26-3.65-5.68-6.65-9.73-7.72
					c-6.02-1.59-12.9,1.69-15.65,7.47c-0.75,1.57-1.22,3.35-0.91,5.08c0.21,1.18,0.77,2.26,1.35,3.29
					c3.84,6.74,9.94,12.73,17.82,14.03c6.1,2.49,11.53,6.75,16.02,13.42C497.31,469.81,495.09,461.61,494.1,454.77z"/>
				<path class="girl_st20" d="M497.52,488.93c-4.26,4.86-7.92,10.29-10.88,16.1c-3.13,6.17-5.92,13.27-11.93,16.39
					c-3.96,2.05-8.96,1.85-12.69-0.63c-3.73-2.48-6.02-7.18-5.59-11.76c0.42-4.58,3.6-8.79,6.85-10.27
					c6.41-5.5,15.1-6.92,23.33-8.14C490.14,490.11,493.68,489.58,497.52,488.93z"/>
			</g>
		</g>
	</g>
</g>
</svg>
