<?xml version="1.0" encoding="utf-8"?>
<!-- Generator: Adobe Adobe Illustrator 24.2.0, SVG Export Plug-In . SVG Version: 6.00 Build 0)  -->
<svg version="1.1" xmlns="http://www.w3.org/2000/svg" xmlns:xlink="http://www.w3.org/1999/xlink" x="0px" y="0px" width="1728px"
	 height="1296px" viewBox="0 0 1728 1296" style="enable-background:new 0 0 1728 1296;" xml:space="preserve">
<style type="text/css">
	.st0{display:none;}
	.st1{fill:#D4AA8E;stroke:#000000;stroke-width:3;stroke-miterlimit:10;}
	.st2{stroke:#000000;stroke-width:3;stroke-miterlimit:10;}
	.st3{fill:#E3B596;stroke:#000000;stroke-width:3;stroke-miterlimit:10;}
	.st4{fill:#FFFFFF;stroke:#000000;stroke-width:3;stroke-miterlimit:10;}
	.st5{fill:#FF21C8;stroke:#000000;stroke-width:3;stroke-miterlimit:10;}
	.st6{display:none;fill:#FFFFFF;stroke:#000000;stroke-width:3;stroke-miterlimit:10;}
	.st7{fill:#FF6600;stroke:#000000;stroke-width:3;stroke-miterlimit:10;}
	.st8{fill:#FF21C8;stroke:#000000;stroke-width:2;stroke-miterlimit:10;}
	.st9{fill:none;}
	.st10{fill:#E3B596;stroke:#000000;stroke-width:5;stroke-miterlimit:10;}
	.st11{stroke:#000000;stroke-width:5;stroke-miterlimit:10;}
	.st12{fill:#0F0606;stroke:#000000;stroke-width:5;stroke-miterlimit:10;}
	.st13{fill:none;stroke:#000000;stroke-width:5;stroke-miterlimit:10;}
	.st14{fill:#FFFFFF;stroke:#000000;stroke-width:5;stroke-miterlimit:10;}
	.st15{fill:#FF85BC;stroke:#CF6D99;stroke-width:2;stroke-miterlimit:10;}
	.st16{display:inline;fill:none;stroke:#000000;stroke-width:5;stroke-miterlimit:10;}
	.st17{display:inline;fill:none;stroke:#000000;stroke-miterlimit:10;}
	.st18{stroke:#000000;stroke-width:4;stroke-miterlimit:10;}
	.st19{fill:#DB5800;stroke:#000000;stroke-width:2;stroke-miterlimit:10;}
	.st20{fill:#FF6600;stroke:#000000;stroke-width:2;stroke-miterlimit:10;}
	.st21{fill:#FFFFFF;stroke:#000000;stroke-width:2;stroke-miterlimit:10;}
	.st22{fill:#FFB17D;stroke:#000000;stroke-width:2;stroke-miterlimit:10;}
</style>
<g id="Layer_4" class="st0">
</g>
<g id="Layer_12" class="st0">
</g>
<g id="Layer_1" class="st0">
</g>
<g id="Layer_22">
	<g id="Layer_18">
		<rect x="797.94" y="583.62" class="st1" width="198.79" height="232.29"/>
	</g>
	<g id="Layer_14">
		<path class="st2" d="M768.71,973.47c34.22,6.37,70.42,10.13,103.46-0.09c6.11-10.6,9.59-22.69,8.41-32.69
			c-19.91-8.63-40.03-17.32-61.35-21.4s-44.24-3.22-65.12,6.36C754.79,943.46,760.1,961.07,768.71,973.47z"/>
		<path class="st2" d="M1013.44,975.9c-34.03,6.61-69.9,10.38-102.14-0.96c-5.64-11.52-8.63-24.65-7.1-35.46
			c19.98-9.18,40.16-18.42,61.36-22.66c21.2-4.24,43.8-3.12,64.06,7.43C1028.29,943.52,1022.39,962.54,1013.44,975.9z"/>
	</g>
	<g id="Layer_9">
		<g id="Layer_13">
			<path class="st3" d="M1065.36,783.38c1.07,15.63,14.65,29.55,30.67,31.43c5.9,0.69,11.91-0.09,17.64-1.64
				c4.06-1.1,8.04-2.6,11.57-4.83c10.53-6.65,16.02-19.93,13.48-31.86c-2.44-11.42-11.83-21.03-23.29-24.51
				c-11.46-3.48-24.55-0.93-34.14,6.13S1064.89,776.45,1065.36,783.38z"/>
			<path class="st4" d="M999.15,611.47c7.93-10.16,23.58-12.32,35.77-7.67c12.19,4.65,21.35,14.71,28.4,25.43
				c15.52,23.58,23.04,51.63,39.74,74.43c6.85,9.35,15.1,17.62,23.07,26.1c4.13,4.4,8.27,8.98,10.49,14.53
				c2.22,5.55,2.19,12.32-1.62,17.01c-6.13,7.53-19.02,6.88-25.27,14.31c-1.89,2.25-2.97,5.04-4.7,7.41
				c-4.63,6.35-13.02,8.73-20.77,10.69c-5.19,1.31-10.55,2.64-15.84,1.86c-3.61-0.53-7.6-1.25-10.16-3.81
				c-48.49-48.49-52.59-89.47-58.08-109.36C993.49,658.17,985.19,629.35,999.15,611.47z"/>
			<path class="st5" d="M1056.68,620.52c-27.69,2.02-52.78,20.34-63.11,45.4c0,0,4.54,4.69,4.58,5.13
				c5.17-9.07,12.91-16.52,21.6-22.3c17.43-11.6,34.87-16.71,45.54-15.57L1056.68,620.52z"/>
			<path class="st5" d="M1104.88,706.72c-15.12,9.03-30.31,18.08-46.59,24.94c-16.28,6.86-33.81,11.49-51.53,11.21
				c0,0-3.91-17.49-3.93-16.98c8.25,1.58,16.77,0.48,24.99-1.24c24.8-5.18,48.4-16.03,68.48-31.47L1104.88,706.72z"/>
		</g>
		<g id="Layer_19">
			<path class="st3" d="M710.03,768.88c-5.82,14.55-23.01,23.63-38.83,20.5c-5.83-1.15-11.31-3.74-16.29-6.98
				c-3.52-2.29-6.85-4.94-9.53-8.15c-7.99-9.56-9.13-23.88-3.05-34.46c5.82-10.13,17.71-16.39,29.68-16.18
				c11.97,0.21,23.65,6.65,30.61,16.31C709.59,749.59,712.61,762.43,710.03,768.88z"/>
			<path class="st4" d="M825.79,625.57c-4.43-12.1-18.67-18.96-31.7-18.27s-24.83,7.45-34.83,15.49
				c-22,17.68-37.77,42.07-60.66,58.65c-9.39,6.8-19.78,12.14-29.96,17.76c-5.28,2.92-10.63,6.01-14.44,10.61
				s-5.86,11.06-3.67,16.68c3.52,9.05,15.99,12.38,19.66,21.37c1.11,2.72,1.28,5.71,2.2,8.5c2.46,7.46,9.72,12.3,16.49,16.55
				c4.53,2.84,9.23,5.75,14.51,6.63c3.6,0.6,7.29,0.22,10.84-0.51c21.35-4.38,37.71-20.53,51.64-36.8
				c13.44-15.7,25.87-32.23,37.19-49.48C816.85,671.76,833.59,646.87,825.79,625.57z"/>
			<path class="st5" d="M695.94,683.79c10.07,11.97,20.18,23.98,31.99,34.22c11.81,10.24,25.46,18.72,40.95,22.69
				c0,0,9.33-15.25,9.17-14.78c-7.7-0.51-14.73-3.56-21.28-7.12c-19.78-10.72-36.59-26.4-48.79-45.49L695.94,683.79z"/>
			<path class="st5" d="M768.26,616.54c25.74,10.42,43.99,35.55,46.13,62.57c0,0-5.76,3.07-5.94,3.47
				c-2.14-10.22-7.22-19.68-13.72-27.86c-13.03-16.39-28.06-26.6-38.56-28.79L768.26,616.54z"/>
		</g>
		<path class="st4" d="M802.93,623.51c-5.56,41.49-7.94,71.47-17.37,102.86c-20.17,67.11-52.63,130.02-87.06,193.47
			c19.85,13.26,44.35,19.4,68.1,17.07c10.8-1.06,21.5-3.81,32.34-3.28c26.14,1.27,49.21,21.29,75.35,20.03
			c20.88-1.01,38.98-15.49,59.71-18.27c29.57-3.97,57.94,16.4,87.71,14.32c16.53-1.15,31.7-9.12,45.29-16.81
			c6.65-4.19,28.64-11.38,37.18-15.8c-14.58-12.08-31-47.35-40.19-63.9c-43.5-78.31-66.05-157.78-62.33-247.09
			c-0.77-1.01-5.81,0.31-19.46,8.11c-2.27,12.67-23.47,34.42-27.92,36.96c-25.37,14.49-74.89,11.03-83.19,5
			c-2.28-1.66-40.48-12.62-43.69-26.74C823.97,614.45,802.91,624.05,802.93,623.51z"/>
		<g id="Details">
			<path class="st6" d="M621.03,664.7c19.25,0.67,36.5,2.4,54.3,4.73"/>
			<path class="st6" d="M680.46,669.77c-1.27-0.42-50.19-6.1-60.68-5.24l2.53-10.27c19.67,1.29,39.92,3.26,59.44,5.89
				C681.75,660.15,680.82,669.89,680.46,669.77z"/>
			<path class="st5" d="M953.64,714.65c17.6-2.07,37.96-6.08,54.89-10.28l2.18,11.91c0,0-47.46,12.28-56.94,10.12L953.64,714.65z"/>
			<path class="st5" d="M849.75,716.06c-18.94-2.07-40.72-5.91-58.93-10.11l-2.48,11.74c0,0,51.06,12.28,61.26,10.12L849.75,716.06z
				"/>
			<path class="st6" d="M791.85,670.91c16.96-2.3,33.85-5.18,50.61-8.63"/>
			<g id="Layer_10">
				<path class="st7" d="M840.98,768.2l4.52-59.18l112.04-0.75c0,0,10.24,65.06,9.07,64.42c-15.4,12.17-34.94,18.69-54.55,19.39
					c-19.61,0.7-39.25-4.26-56.75-13.13C849.88,776.2,844.16,772.46,840.98,768.2z"/>
				<polygon class="st7" points="936.85,663.91 935.26,708.26 953.67,708.26 954.26,651.17 937.15,655.93 				"/>
				<polygon class="st7" points="850.91,667.91 849.3,708.98 866.97,708.98 868.07,661.18 850.96,654.13 				"/>
			</g>
			<path class="st5" d="M829.05,630.66c-0.11,1.55-9.43,25.18-9.43,25.18s26.02-8.46,26.56-8.52l-2.36,24.2
				c8.06-4.86,15.98-9.93,23.29-15.22c1.27,8.95,2.54,17.9,4.11,26.91c6.34-6.72,12.67-13.43,17.49-19.9
				c3.33,7.66,6.33,15.46,8.87,22.85c6.06-6.79,12.13-13.58,16.13-21.82c4.73,7.13,9.64,14.14,14.36,22.21
				c4.29-9.05,8.59-18.11,13.13-23.48c5.36,5.36,10.73,10.72,16.72,17.38c-0.22-9.37-0.43-18.74,0.73-26.89
				c7.25,2.64,14.49,5.29,23.06,8.95c-2.11-9.24-4.91-18.32-7.93-24.37c4.95,0.08,9.9,0.15,16.04,1.29
				c-2.53-4.18-8.12-14.86-10.56-17.71c-17.01,23.68-47.2,41.92-76.24,39.41c-9.52-0.82-18.83-3.25-27.97-6.04
				C858.81,650.12,840.43,639.74,829.05,630.66z"/>
			<g id="Layer_20">
				<path class="st8" d="M1056.23,838.81c-2.4,0.35-2.81-0.25-5.98,2.25c-3.17,2.49-4.03,6.7-4.42,10.76
					c-0.93-2.72-5.75-4.82-8.83-6c-1.97-0.75-4.14-0.87-6.23-0.65c-7.45,0.76-11.96,6.49-14.26,13.75c-0.51-1.95-3.78-6-6.04-7.49
					c-5.91-3.88-14.89-3.39-21.58-1.18s-10.28,7.1-12.83,13.77c-3.91-8.05-13.78-9.7-21.07-8.29c-7.29,1.42-11.84,5.87-15.28,12.57
					c-0.66-5.62-7.77-7.6-12.62-8.23c-9.23-1.19-19.07,3.12-24.11,11.09c-2.5-5.79-8.05-9.79-14.22-11.24
					c-6.17-1.45-12.88-0.34-18.28,3.03c-3.01,1.88-5.69,4.55-6.88,7.94c-2.43-7.37-7.65-12.58-14.02-13.74
					c-3.41-0.62-6.93-0.1-10.29,0.79c-6.14,1.62-12.35,4.77-15.42,10.42c0.08-5.93-4.75-10.23-9.76-12.34
					c-4.98-2.1-10.59-2.78-15.85-1.54c-5.25,1.24-10.1,4.49-12.98,9.13c-0.03-5.85-4.03-11.61-9.17-14.9
					c-4.93-3.15-10.98-4.43-16.73-3.54c-5.75,0.89-9.13,5.42-13.47,8.95c1.68-4.83-1.5-9.26-7.68-10.5l-5.1,10.32
					c6.35,1.24,10.22,5.85,8.49,10.68c4.47-3.53,7.94-8.06,13.85-8.95c5.92-0.89,12.14,0.39,17.21,3.54
					c5.28,3.28,9.39,9.05,9.43,14.9c2.96-4.65,7.94-7.89,13.34-9.13c5.4-1.24,11.17-0.56,16.3,1.54
					c5.15,2.11,10.11,6.41,10.03,12.34c3.16-5.66,9.54-8.81,15.86-10.42c3.45-0.88,7.07-1.41,10.58-0.79
					c6.56,1.17,11.92,6.37,14.42,13.74c1.23-3.39,3.98-6.06,7.08-7.94c5.55-3.37,12.45-4.48,18.79-3.03
					c6.34,1.45,12.05,5.45,14.62,11.24c5.18-7.97,15.31-12.28,24.79-11.09c4.98,0.62,10.24,3.11,10.92,8.73
					c3.54-6.7,10.27-11.65,17.77-13.07c7.5-1.42,15.59,0.73,19.61,8.79c2.62-6.67,8.38-12.06,15.25-14.27s14.73-1.2,20.8,2.68
					c2.33,1.49,4.51,3.54,5.03,5.49c2.37-7.25,9.58-12.49,17.24-13.25c2.16-0.21,4.38-0.1,6.41,0.65c3.17,1.18,5.55,3.78,6.51,6.5
					c0.4-4.06,2.83-7.77,6.09-10.26c3.26-2.49,3.74-3.08,7.82-3.68L1056.23,838.81z"/>
			</g>
			<g id="Layer_21">
				<path class="st8" d="M1032,785.74c-7.48,0.76-9.29,5.15-11.6,12.4c-8.76-15.49-34.91-10.27-40.11,6.1
					c-8.17-15.96-30.03-9.05-36.49,4.28c-4.46-15.57-28.63-8.77-34.86,2.36c-6.58-15.51-32.85-15.87-39.54-0.27
					c-5.31-19.49-30.98-16.66-39.89-2.53c-2.04-17.74-30.81-18.95-38.73-4.74c-0.21-15.01-16.57-18.89-25.26-18.92l-5.1,10.81
					c8.7,0.03,27.43,3.82,27.67,18.96c8.12-14.15,37.47-13.11,39.67,4.74c9.13-14.09,35.34-17.02,40.86,2.53
					c6.93-15.63,33.69-15.24,40.49,0.27c6.35-11.08,31.09-17.99,35.71-2.36c6.65-13.36,29.04-20.21,37.38-4.28
					c5.43-16.44,32.08-21.57,41.08-6.1c2.37-7.25,5.33-11.8,12.99-12.56L1032,785.74z"/>
			</g>
		</g>
	</g>
	<g id="Layer_2">
		
			<ellipse transform="matrix(0.0641 -0.9979 0.9979 0.0641 414.0587 1317.8141)" class="st10" cx="909.64" cy="438.15" rx="203" ry="253"/>
		<g id="Layer_3">
			
				<ellipse transform="matrix(0.1954 -0.9807 0.9807 0.1954 156.2672 1195.9723)" class="st11" cx="807" cy="502.75" rx="42" ry="36.5"/>
			
				<ellipse transform="matrix(0.1954 -0.9807 0.9807 0.1954 300.1105 1395.276)" class="st12" cx="1000.39" cy="514.74" rx="42" ry="36.5"/>
			<path class="st13" d="M1034.18,499.44c4.38-2.1,12.18-6.49,18.25-9.14"/>
			<path class="st13" d="M1037.11,511.28c4.12-1,8.24-2.01,12.37-3.01"/>
			<path class="st14" d="M766.04,468.92c5.03,1.89,10.01,3.93,14.91,6.14"/>
			<path class="st14" d="M763.16,482.63c3.73,0.42,7.42,1.28,10.95,2.56"/>
			
				<ellipse transform="matrix(0.0827 -0.9966 0.9966 0.0827 374.8251 1560.7551)" class="st15" cx="1035.2" cy="576.78" rx="16.85" ry="27"/>
			
				<ellipse transform="matrix(0.0951 -0.9955 0.9955 0.0951 133.7655 1258.5532)" class="st15" cx="759.14" cy="555.7" rx="16.85" ry="27"/>
			<path class="st13" d="M867.78,555.38c8.59,7.57,19.68,12.26,31.09,13.14c11.42,0.88,23.09-2.04,32.69-8.29"/>
			<g id="Layer_24" class="st0">
				<path class="st16" d="M1213.04,499.69c18.95-28.08,64.05-21.87,76.15,3.9"/>
				<path class="st16" d="M1275.24,489.16c5.32,0.14,10.66-1.01,15.45-3.34"/>
				<path class="st16" d="M1283,495.74c6.3,3.06,14.27,2.33,19.91-1.82"/>
				<path class="st16" d="M1108.55,493.08c-18.95-28.08-64.05-21.87-76.15,3.9"/>
				<path class="st16" d="M1046.35,482.54c-5.32,0.14-10.66-1.01-15.45-3.34"/>
				<path class="st16" d="M1038.59,489.13c-6.3,3.06-14.27,2.33-19.91-1.82"/>
			</g>
		</g>
		<g id="Layer_6">
			<path class="st18" d="M1081.18,480.5c-17.33-17.86-42.82-57.65-65.72-66.08c-7.35-2.7-15.26-3.34-23.04-4.23
				c-40.67-4.66-82.46-18.24-109.72-48.78c5.74-78.98,11.33-119.33,8.71-125.61c61.11-2.58,122.9,13.74,174.76,46.16
				c13.08,8.18,25.58,17.38,36.53,28.25c8.04,7.99,15.2,16.83,22.06,25.85c10.49,13.8,20.45,28.31,26.33,44.61
				c7.93,22,11.92,46.71,11.22,70.08c-0.67,22.22-15.86,67.01-17.17,66.83S1099.24,499.11,1081.18,480.5z"/>
			<path class="st18" d="M884.36,238.68c0,0-10.01,121.99-10.43,122.39c-20.94,22.52-46.89,39.47-74.03,50.97
				c-17.06,10.6-40.69,9.58-57.01,21.25c-13.29,9.5-19.86,29.56-31.5,40.93c-11.64,11.37-22.43,25.58-38.13,29.38
				c-9.96-11.61-12.23-37.91-14.25-55.5c-2.02-17.59-1.64-35.54,2.61-52.91c8.21-30.3,23.83-58.6,45.21-81.91
				s48.48-41.57,76.27-52.14c32.33-13.06,66.57-21.68,101.39-25.52C885.28,237.32,885.2,239.38,884.36,238.68z"/>
		</g>
		<g id="Layer_5">
			<g id="Layer_15">
				<path class="st2" d="M1064.87,602.46c-4.94,5.52-10.2,11.89-9.76,19.28c0.19,3.13,1.41,6.09,2.75,8.93
					c3.81,8.02,8.75,15.5,16.52,23.4c-5.94,1.06-10.74,5.27-15.21,9.31c-1.02,0.92-2.06,1.87-2.74,3.07
					c-1.75,3.12-0.61,7.01,0.79,10.3c3.74,8.8,9.12,16.91,16.58,23.45c-3.88,1.45-7.59,3.34-11.04,5.62
					c-2.45,1.62-4.91,3.63-5.72,6.46c-0.85,2.99,0.35,6.16,1.67,8.98c2.51,5.35,5.52,10.47,10.05,14.81
					c-6.46,2.34-13.26,4.92-17.56,10.26c-1.18,1.46-2.16,3.16-2.34,5.03c-0.22,2.21,0.7,4.37,1.65,6.38
					c5.51,11.74,12.65,22.72,18.87,30.34c13.11-0.42,26.07-4.7,36.82-12.19c1.88-1.31,3.8-2.86,4.46-5.05
					c0.54-1.78,0.14-3.7-0.3-5.5c-2.59-10.46-7.03-20.46-12.86-29.16c5.04-1.21,9.7-3.6,14.22-6.11c3.64-2.02,7.59-4.66,8.22-8.77
					c0.45-2.91-0.94-5.75-2.28-8.37c-3.46-6.74-6.91-13.48-8.99-18.84c8.39-5.27,15.77-12.12,21.66-20.07
					c1.47-1.99,2.9-4.23,2.82-6.7c-0.08-2.35-1.53-4.41-2.93-6.32c-3.89-5.31-7.77-10.63-12.49-14.49
					c5.37-3.82,10.79-7.71,15.08-12.71c4.29-4.99,7.42-11.27,7.4-17.85c-0.01-4.68-1.6-9.21-3.16-13.62
					c-4.72-13.32-9.44-26.64-14.16-39.96L1064.87,602.46z"/>
				<path class="st2" d="M1071.57,787.27c-7.84,10.36-14.87,23.16-11.71,35.76c2.22,8.86,9.28,15.92,17.35,20.25
					c8.08,4.33,17.17,6.32,30.29,8.67c-6.57-3.17-11.93-8.77-14.79-15.47c-2.86-6.69-3.2-14.42,0.8-22.37
					c1.15-5.41,0.17-11.24-2.69-15.98c-2.86-4.74-7.57-8.35-12.91-9.87C1074.97,787.4,1071.7,787.1,1071.57,787.27z"/>
			</g>
			<g id="Layer_16">
				<path class="st2" d="M661.63,747.12c4.68,12.11,7.92,26.34,1.45,37.59c-4.55,7.92-13.24,12.77-22.16,14.73
					c-8.92,1.96-18.18,1.39-31.39,0.06c7.16-1.25,13.82-5.18,18.39-10.84c4.57-5.66,7-12.99,5.35-21.74
					c0.37-5.52,2.9-10.86,6.94-14.64c4.04-3.78,9.53-5.96,15.06-5.97C658.34,746.31,661.55,746.92,661.63,747.12z"/>
				<path class="st2" d="M718.55,571.19c3.23,6.66,6.52,14.23,4.08,21.21c-1.03,2.96-3.01,5.48-5.08,7.83
					c-5.84,6.67-12.62,12.52-22.22,17.99c5.4,2.65,8.85,8,12.03,13.11c0.73,1.17,1.47,2.36,1.78,3.7c0.82,3.47-1.33,6.91-3.57,9.69
					c-5.99,7.44-13.36,13.77-22.29,18.03c3.32,2.46,6.36,5.29,9.04,8.43c1.91,2.23,3.72,4.84,3.72,7.77c0,3.11-2.02,5.82-4.06,8.18
					c-3.87,4.46-8.15,8.56-13.68,11.5c5.55,4.02,11.36,8.35,14.02,14.67c0.73,1.73,1.2,3.63,0.87,5.48
					c-0.4,2.19-1.86,4.01-3.32,5.69c-8.48,9.79-18.32,18.4-26.37,24.03c-12.45-3.98-23.69-11.65-31.95-21.78
					c-1.45-1.77-2.86-3.79-2.89-6.08c-0.03-1.86,0.87-3.6,1.79-5.21c5.34-9.35,12.33-17.76,20.28-24.53
					c-4.49-2.54-8.31-6.11-11.96-9.77c-2.93-2.94-6-6.56-5.48-10.68c0.37-2.92,2.47-5.27,4.47-7.43
					c5.15-5.54,10.3-11.08,13.76-15.67c-6.6-7.36-11.8-15.96-15.26-25.22c-0.87-2.31-1.63-4.86-0.87-7.22
					c0.72-2.24,2.67-3.82,4.53-5.28c5.17-4.05,10.35-8.1,15.92-10.52c-4.1-5.14-8.22-10.36-10.97-16.34
					c-2.75-5.98-4.03-12.87-2.21-19.19c1.29-4.5,4.05-8.42,6.75-12.24c8.16-11.52,16.32-23.04,24.48-34.56L718.55,571.19z"/>
			</g>
			<g id="Layer_8">
				<g id="Layer_7">
					<path class="st19" d="M1172.92,582.52c12.01,10.47,18.78,25.64,23.92,40.72c5.13,15.08,9.07,30.75,16.96,44.59
						c7.89,13.84,20.71,25.97,35.47,28.84c-17.59,4.1-36.69,1.3-51.51-7.05c-3.78,13.46-2.38,28.31,3.3,41.47
						c-19.57-12.53-35.47-30.71-45.28-51.78c-9.81-21.07-13.48-44.94-11.63-66.6c-0.06-19.06-4.79-38.08-13.66-54.95
						c5.31-0.27,10.23,2.52,14.81,5.21C1157.97,570.42,1169.28,579.35,1172.92,582.52z"/>
					<path class="st20" d="M1161.7,587.43c5.86,9.24,7.61,20.56,7.35,31.5s-2.4,21.73-3.74,32.59c-2.77,22.49-2.04,45.79,5.54,67.14
						c4.06,11.42,10.7,22.81,21.23,27.58c-12.26,0.24-24.56-1.85-36.05-6.13c-5.26-1.96-10.76-4.78-13.67-10.28
						c-5.54,17.96-11.13,36.96-8.64,55.13c-12.78-10.76-20.21-26.91-22.89-43.4c-2.68-16.49-0.99-33.39,2.02-49.83
						c3.01-16.43,7.32-32.62,9.93-49.12c2.22-14.05,3.17-28.5,0.39-42.45c-2.93-14.68-2.33-28.76-11.15-41.03
						c10.97-0.43,14.41,1.17,25.07,3.84c4.63,1.16,9.29,2.65,13.15,5.45C1157.54,573.72,1159.16,583.42,1161.7,587.43z"/>
					<path id="_x3C_Path_x3E_ribbon_1_" class="st20" d="M1200.45,530.96c7.14,2.64,13.25,8,16.8,14.73
						c1.17,2.22,2.08,4.63,2.16,7.13c0.16,4.88-2.88,9.39-6.65,12.49c-3.78,3.1-8.3,5.12-12.52,7.59
						c-4.22,2.47-8.31,5.6-10.39,10.02c-1.82,3.88-1.92,8.42-3.98,12.18c-3.09,5.63-10.25,8.25-16.59,7.18
						c-6.34-1.07-11.81-5.25-15.76-10.32c-3.95-5.07-6.58-11.02-10.34-17.04c-0.61-21.24-0.17-42.51,1.69-63.78
						C1163.29,518.19,1182.11,524.17,1200.45,530.96z"/>
					<path id="_x3C_Path_x3E_ribbon" class="st20" d="M1201,480.32c4.98-2.23,10.61-2.99,16.01-2.16c4.21,0.65,8.75,2.73,10.05,6.79
						c0.88,2.74,0.07,5.71-0.74,8.48c-0.74,2.51-1.47,5.01-2.21,7.52c-0.59,2-1.18,4.07-0.87,6.13c0.38,2.51,2.03,4.61,3.6,6.6
						c2.85,3.62,5.68,7.36,7.28,11.68s1.82,9.37-0.44,13.38c-1.54,2.73-4.1,4.77-6.84,6.29c-2.76,1.53-5.99,2.61-8.54,1.62
						c-14.53-1.62-28.66-6.67-40.92-14.63c-4.74-3.07-9.25-6.6-15.76-8.48c4.56-9.68,9.49-19.33,16.43-27.47
						C1184.99,487.93,1194.72,483.13,1201,480.32z"/>
					<path class="st21" d="M1200.51,509.99c5.48-0.64,11.04-0.55,16.5,0.27"/>
					<path class="st21" d="M1175.72,565.95c3.29,4,6.09,8.4,8.34,13.07"/>
					<path class="st19" d="M613.95,559.53c-13.93,6.85-24.27,19.63-33.07,32.77c-8.8,13.14-16.65,27.16-27.67,38.36
						s-26.14,19.43-40.57,18.23c15.17,8.67,33.61,11.11,49.56,7.05c-0.12,13.97-5.4,27.89-14.19,39.03
						c21.48-6.8,41.08-20.03,55.81-37.67c14.73-17.64,24.55-39.64,28.65-60.98c5.17-18.33,14.66-35.37,27.41-49.22
						c-4.84-1.68-10.15-0.33-15.11,1.04C631.03,551.9,618.16,557.46,613.95,559.53z"/>
					<path class="st20" d="M623.01,567.27c-7.9,7.32-12.57,17.74-15.27,28.34s-3.62,21.56-5.3,32.37
						c-3.48,22.39-10.42,44.62-23.17,63.14c-6.82,9.91-16.03,19.08-27.05,20.84c11.28,3.53,23.22,4.82,35,3.79
						c5.39-0.47,11.24-1.71,15.41-6.22c0.3,18.77,0.37,38.57-6.81,55.38c14.72-6.92,25.93-20.47,32.85-35.62s9.89-31.88,11.52-48.5
						c1.63-16.63,1.98-33.36,4.01-49.94c1.72-14.12,4.72-28.28,11.04-40.96c6.65-13.34,9.89-27.06,21.34-36.5
						c-10.04-3.36-13.65-2.74-24.23-3.04c-4.6-0.13-9.3,0.06-13.64,1.71C630.54,555.19,626.44,564.1,623.01,567.27z"/>
					<path id="_x3C_Path_x3E_ribbon_3_" class="st20" d="M602.32,502.51c-7.32,0.63-14.41,4.14-19.51,9.67
						c-1.68,1.82-3.17,3.89-3.92,6.28c-1.46,4.66,0.14,9.81,2.8,13.81c2.66,4,6.31,7.16,9.55,10.67c3.24,3.51,6.19,7.62,6.92,12.44
						c0.64,4.22-0.48,8.62,0.42,12.79c1.35,6.25,7.27,10.69,13.42,11.36c6.15,0.67,12.34-1.88,17.36-5.7s9.05-8.84,14.15-13.62
						c6.27-20.28,11.58-40.87,15.58-61.85C640.14,500.2,621.11,500.9,602.32,502.51z"/>
					<path id="_x3C_Path_x3E_ribbon_2_" class="st20" d="M615.42,453.62c-4.01-3.49-9.02-5.73-14.23-6.38
						c-4.07-0.51-8.83,0.28-11.13,3.83c-1.55,2.4-1.6,5.48-1.59,8.36c0.01,2.61,0.02,5.22,0.02,7.83c0.01,2.08,0,4.24-0.84,6.13
						c-1.02,2.31-3.11,3.89-5.1,5.38c-3.61,2.71-7.23,5.55-9.87,9.29c-2.64,3.73-4.2,8.53-3.18,13c0.69,3.05,2.51,5.69,4.64,7.89
						c2.14,2.21,4.84,4.12,7.46,3.86c13.88,2.34,28.31,1.28,41.8-3.09c5.21-1.69,10.33-3.87,16.86-3.93
						c-1.62-10.54-3.59-21.15-7.83-30.86C628.19,465.24,620.48,458.01,615.42,453.62z"/>
					<path class="st21" d="M607.9,482.31c-4.9-2.09-10.07-3.49-15.34-4.17"/>
					<path class="st21" d="M615.8,542.84c-4.12,2.97-7.89,6.45-11.23,10.34"/>
					<g id="Layer_17flower">
						<path class="st22" d="M1128.32,464.25c0.65-3.64,2.78-6.99,5.8-9.11c3.02-2.13,6.89-3.01,10.54-2.4
							c4.3,0.72,8.21,3.55,10.19,7.44c1.98,3.88,1.98,8.73-0.02,13.12c-2.61,4.82-6.98,8.42-11.47,11.57s-9.22,6.03-12.69,10.04
							C1129.05,484.36,1126.66,473.54,1128.32,464.25z"/>
						<path class="st22" d="M1132.48,503.51c5.65-4.24,11.57-8.12,17.72-11.62c5.12-2.91,10.52-5.6,16.35-6.35
							c5.84-0.76,12.24,0.7,16.23,5.03c2.8,3.04,4.18,7.34,3.67,11.44c-0.51,4.1-2.91,7.93-6.37,10.19
							c-4.84,3.15-11.06,3.08-16.79,2.43C1151.55,513.29,1140.04,509.97,1132.48,503.51z"/>
						<path class="st22" d="M1120.22,568.19c1.89,3.02,3.87,6.15,6.89,8.04c4.05,2.55,9.4,2.39,13.8,0.51
							c1.69-0.72,3.31-1.7,4.55-3.05c1.65-1.8,2.57-4.16,3.07-6.55c1.71-8.21-1.28-16.84-6.18-23.66s-11.55-12.13-18.73-17.56
							C1124.79,540.37,1113.06,556.73,1120.22,568.19z"/>
						<path class="st22" d="M1137.86,516.25c3.78-10.29,10.49-19.48,19.13-26.23c3.99-3.11,8.62-5.79,13.67-5.98
							c3.58-0.14,7.12,0.99,10.21,2.8c4.19,2.45,7.85,6.78,7.43,11.61c-0.38,4.31-3.89,7.72-7.68,9.81
							C1167.82,515.33,1151.7,511.5,1137.86,516.25z"/>
						<path class="st22" d="M1181.15,475.46c6.51-4.24,15.74-1.42,20.99,4.31c3.7,4.04,5.97,9.45,5.9,14.93
							c-0.07,5.48-2.57,10.95-6.89,14.32c-5.12,3.98-12.03,4.7-18.52,4.51c-11.95-0.34-23.85-3.23-36.26-1.76
							c7.67-11.9,16.9-22.8,27.36-32.34C1177.61,475.91,1182.62,472.34,1181.15,475.46z"/>
						<path class="st22" d="M1178.22,504.98c3.5-1.17,7.2-2.36,10.82-1.63c2.21,0.45,4.22,1.6,6.01,2.96
							c4.62,3.51,8.07,8.76,8.64,14.54c0.57,5.77-2.08,11.94-7.08,14.87c-4.38,2.56-9.83,2.44-14.83,1.56
							c-8.17-1.44-16.19-4.84-21.96-10.8c-3.55-3.66-6.18-8.21-10.15-11.41c0.87-1.02,2.17-1.67,3-2.02
							C1161.63,508.79,1171.5,507.24,1178.22,504.98z"/>
						<path class="st22" d="M1172.5,564.97c7.19,3.57,16.6,1.73,22.1-4.11s6.81-15.17,3.35-22.41c-0.96-2.02-2.28-3.9-4.04-5.29
							c-3.23-2.55-7.57-3.17-11.68-3.16c-3.01,0.01-6.06,0.31-8.89,1.36c-4.22,1.57-7.7,4.74-10.4,8.34
							c-2.13,2.84-3.91,6.22-3.63,9.75c0.28,3.62,2.65,6.71,5.01,9.46C1167.52,562.63,1171.87,566.53,1172.5,564.97z"/>
						<path class="st22" d="M1176.5,513.99c4.09,1.32,8.08,3.6,10.33,7.27c1,1.62,1.62,3.46,1.94,5.34
							c0.79,4.55-0.18,9.38-2.66,13.28c-2.48,3.9-6.45,6.82-10.91,8.03c-8.05,2.19-16.62-1.2-23.46-5.96
							c-6.84-4.77-12.65-10.93-20.24-15.2c1.42-3.28,4.77-5.24,7.92-6.93c5.93-3.2,12-6.33,18.59-7.74
							C1164.59,510.67,1171.32,512.32,1176.5,513.99z"/>
						<path class="st22" d="M1154.28,518.19c-4.01-0.8-8.4-1.83-10.83-5.12c-1.13-1.52-1.71-3.39-2.01-5.27
							c-1.47-9.01,3.63-18.7,11.89-22.59s18.98-1.65,24.99,5.23c5.21,5.96,6.39,15.79,1.13,21.72c-4.96,5.58-13.36,6.07-20.82,6.16
							C1154.44,518.37,1149.45,517.97,1154.28,518.19z"/>
						<path class="st22" d="M1147.8,567.52c3.47,3.85,9.07,5.61,14.14,4.54c5.07-1.08,9.44-4.92,11.24-9.79
							c1.8-4.86,0.99-10.58-2-14.82c-2.47-3.49-6.18-5.87-9.88-8.01c-7.97-4.62-16.33-8.57-24.85-11.56
							C1138.94,541.6,1138.83,557.59,1147.8,567.52z"/>
						<path class="st22" d="M1154.93,461.75c3.45-5.02,10.41-6.86,16.31-5.33s10.74,5.91,14.07,11.01c2.74,4.2,4.57,9.84,1.95,14.12
							c-2.25,3.69-6.92,4.97-11.16,5.82c-11.05,2.19-22.28,3.47-33.09,6.17C1145.24,481.5,1149.49,469.67,1154.93,461.75z"/>
						<path class="st22" d="M1120.15,519.68c-6.27,10.43-10.79,21.91-13.29,33.82c-0.69,3.28-1.2,6.83,0.18,9.88
							c1.94,4.26,7.26,6.24,11.86,5.36s8.46-4.05,11.36-7.72c2.62-3.31,4.67-7.29,4.66-11.51c0-2.79-0.9-5.5-1.93-8.1
							C1129.73,533.17,1125.09,525.48,1120.15,519.68z"/>
						<path class="st22" d="M1119.62,519.69c-8.34-11.04-11.23-26-7.6-39.35c1.44-5.3,3.95-10.46,8.1-14.06
							c0.91-0.79,1.91-1.5,3.06-1.86c1.32-0.41,2.77-0.3,4.08,0.13c4.15,1.35,6.74,5.71,7.26,10.04c0.52,4.33-0.65,8.68-1.93,12.85
							C1129.15,498.74,1124.85,509.77,1119.62,519.69z"/>
						<path class="st22" d="M1119.87,520.65c3.24-8.16,9.94-14.89,18.09-18.17c3.67-1.48,8.07-2.21,11.44-0.13
							c1.87,1.15,3.17,3.02,4.24,4.94c0.94,1.7,1.75,3.51,2.06,5.43c0.87,5.47-2.67,11.03-7.61,13.54s-10.91,2.31-16.17,0.59
							S1121.97,521.98,1119.87,520.65z"/>
						<path class="st22" d="M1132.13,490.25c1.23-4.16,3.04-8.22,5.87-11.51c2.83-3.29,6.76-5.77,11.07-6.25
							c6.41-0.71,13.03,3.53,15.06,9.65c0.55,1.66,0.79,3.5,0.23,5.16c-0.38,1.14-1.1,2.12-1.85,3.06
							c-4.88,6.12-11.98,11.18-20.27,11.34c-6.62,1.59-12.79,5.04-18.33,10.99C1126.75,504.68,1130.17,496.89,1132.13,490.25z"/>
						<path class="st22" d="M1123.89,523.6c3.71,5.43,6.73,11.33,8.96,17.51c2.37,6.56,4.26,14,10.01,17.94
							c3.79,2.6,8.96,3.12,13.14,1.2c4.18-1.92,7.18-6.25,7.38-10.85s-2.49-9.22-5.62-11.15c-5.83-6.37-14.58-9.02-22.88-11.41
							C1131.32,525.82,1127.75,524.79,1123.89,523.6z"/>
						<path class="st22" d="M686.99,457.68c0.37-3.68-0.7-7.47-2.92-10.33c-2.22-2.86-5.57-4.75-9.11-5.14
							c-4.17-0.46-8.55,1.22-11.43,4.42c-2.88,3.21-4.18,7.87-3.51,12.63c1.12,5.34,4.2,9.98,7.5,14.22
							c3.3,4.24,6.92,8.28,9.05,13.07C680.91,476.83,686.04,467.07,686.99,457.68z"/>
						<path class="st22" d="M672.6,494.35c-4.09-5.6-8.53-10.93-13.27-15.94c-3.95-4.18-8.23-8.21-13.43-10.51
							s-11.52-2.61-16.37,0.48c-3.41,2.17-5.84,5.94-6.47,10.03s0.56,8.41,3.16,11.52c3.63,4.33,9.4,5.94,14.89,6.85
							C652.32,498.64,663.86,498.53,672.6,494.35z"/>
						<path class="st22" d="M666.57,559.9c-2.56,2.4-5.24,4.88-8.54,5.89c-4.43,1.36-9.34-0.22-12.91-3.22
							c-1.37-1.15-2.6-2.52-3.39-4.16c-1.05-2.17-1.26-4.7-1.08-7.13c0.63-8.36,5.71-15.87,12.08-21.11
							c6.36-5.24,13.95-8.57,22.05-11.87C669.81,531.89,676.26,550.79,666.57,559.9z"/>
						<path class="st22" d="M664.19,505.16c-0.74-10.92-4.47-21.57-10.66-30.39c-2.85-4.07-6.42-7.88-11.04-9.43
							c-3.27-1.09-6.86-0.96-10.2-0.05c-4.53,1.23-9.09,4.41-9.99,9.18c-0.8,4.25,1.53,8.47,4.47,11.51
							C636.72,496.23,652.66,496.87,664.19,505.16z"/>
						<path class="st22" d="M629.87,483.48c-2.92-2.07-6.03-4.21-9.57-4.47c-2.16-0.16-4.33,0.4-6.36,1.23
							c-5.22,2.14-9.82,6.27-11.9,11.67s-1.28,12.05,2.56,16.21c3.37,3.64,8.44,4.99,13.3,5.48c7.94,0.81,16.28-0.31,23.22-4.5
							c4.27-2.57,7.93-6.24,12.46-8.25c-0.53-1.22-1.56-2.19-2.23-2.75C644.2,491.6,635.49,487.46,629.87,483.48z"/>
						<path class="st22" d="M635.09,454.27c-4.89-5.83-14.19-5.6-20.58-1.49c-4.51,2.9-8.06,7.49-9.47,12.78s-0.57,11.23,2.53,15.63
							c3.67,5.21,9.87,7.76,15.92,9.32c11.15,2.88,22.94,3.3,34.03,8.05c-3.9-13.52-9.51-26.49-16.64-38.48
							C638.25,455.66,634.57,450.87,635.09,454.27z"/>
						<path class="st22" d="M619.04,542.75c-7.61,1.5-15.83-2.79-19.35-9.9c-3.52-7.1-2.23-16.43,2.92-22.47
							c1.43-1.68,3.16-3.14,5.16-4.01c3.67-1.59,7.86-1.01,11.66,0.1c2.79,0.82,5.53,1.93,7.86,3.7c3.49,2.65,5.85,6.63,7.39,10.83
							c1.21,3.3,1.94,7.03,0.74,10.36c-1.24,3.41-4.25,5.74-7.18,7.76C624.29,541.84,619.22,544.43,619.04,542.75z"/>
						<path class="st22" d="M629.05,492.61c-4.14,0.17-8.45,1.3-11.52,4.22c-1.36,1.3-2.43,2.9-3.23,4.62
							c-1.95,4.17-2.35,9.08-1.11,13.5c1.25,4.42,4.14,8.3,7.94,10.66c6.86,4.27,15.71,3.32,23.32,0.56
							c7.61-2.75,14.64-7.12,22.82-9.19c-0.43-3.54-3.01-6.32-5.46-8.8c-4.63-4.67-9.41-9.32-15.12-12.44
							S634.29,492.39,629.05,492.61z"/>
						<path class="st22" d="M648.48,502.62c3.93,0.31,8.26,0.49,11.4-2.01c1.45-1.16,2.49-2.81,3.28-4.53
							c3.78-8.28,1.67-18.98-4.93-24.94c-6.6-5.96-17.12-6.69-24.53-1.68c-6.43,4.34-10.15,13.49-6.88,20.6
							c3.09,6.71,10.73,9.44,17.62,11.52C648.28,502.75,653.01,503.71,648.48,502.62z"/>
						<path class="st22" d="M641.22,551.85c-4.25,2.77-9.9,2.97-14.31,0.57c-4.4-2.4-7.42-7.28-7.77-12.44
							c-0.36-5.16,1.92-10.45,5.83-13.72c3.22-2.7,7.3-3.98,11.29-5.05c8.62-2.3,17.41-3.87,26.1-4.45
							C656.39,529.27,652.19,544.69,641.22,551.85z"/>
						<path class="st22" d="M663.04,448.12c-1.84-5.76-7.79-9.4-13.66-9.51c-5.87-0.11-11.52,2.8-15.98,6.82
							c-3.67,3.31-6.87,8.24-5.6,13.06c1.09,4.16,5.07,6.65,8.76,8.6c9.64,5.08,19.68,9.33,28.97,14.83
							C666.7,469.74,665.94,457.2,663.04,448.12z"/>
						<path class="st22" d="M679.66,513.23c3,11.72,4.09,23.99,3.22,36.12c-0.24,3.34-0.72,6.89-2.82,9.46
							c-2.94,3.58-8.4,4.05-12.42,1.98c-4.02-2.08-6.74-6.17-8.44-10.49c-1.53-3.89-2.36-8.27-1.22-12.33
							c0.75-2.69,2.31-5.05,3.96-7.28C667.17,523.64,673.53,517.49,679.66,513.23z"/>
						<path class="st22" d="M680.15,513.38c10.68-8.38,17.38-22.01,17.61-35.83c0.09-5.49-0.85-11.13-3.72-15.71
							c-0.63-1-1.36-1.96-2.33-2.61c-1.11-0.75-2.48-1.03-3.81-0.97c-4.2,0.19-7.77,3.68-9.42,7.71c-1.65,4.03-1.73,8.53-1.67,12.88
							C676.96,490.65,677.98,502.42,680.15,513.38z"/>
						<path class="st22" d="M679.66,514.23c-0.81-8.73-5.19-17-11.86-22.35c-3-2.41-6.87-4.29-10.55-3.2
							c-2.04,0.61-3.75,2.05-5.25,3.61c-1.33,1.38-2.56,2.91-3.36,4.67c-2.28,5.03-0.49,11.34,3.41,15.07
							c3.9,3.74,9.48,5.15,14.81,4.91C672.19,516.7,677.36,514.95,679.66,514.23z"/>
						<path class="st22" d="M676.48,481.68c-0.02-4.34-0.6-8.73-2.33-12.66c-1.73-3.93-4.7-7.37-8.57-8.99
							c-5.74-2.41-13.01-0.11-16.53,5.24c-0.96,1.45-1.67,3.15-1.6,4.9c0.04,1.2,0.45,2.34,0.89,3.44
							c2.87,7.21,8.08,13.98,15.71,16.36c5.7,3.31,10.48,8.28,14.01,15.5C677.58,497.02,676.52,488.6,676.48,481.68z"/>
						<path class="st22" d="M675.15,515.99c-4.89,4.23-9.27,9.1-13,14.45c-3.96,5.68-7.7,12.33-14.08,14.58
							c-4.21,1.48-9.13,0.6-12.48-2.37c-3.35-2.97-4.97-7.94-3.91-12.42s4.78-8.21,8.2-9.23c7.11-4.56,15.91-4.77,24.24-4.83
							C667.68,516.13,671.25,516.1,675.15,515.99z"/>
					</g>
				</g>
			</g>
		</g>
	</g>
</g>
<g id="Layer_28">
</g>
<g id="Layer_25">
</g>
<g id="Layer_26">
</g>
<g id="Layer_27">
</g>
</svg>
