<?xml version="1.0" encoding="utf-8"?>
<!-- Generator: Adobe Adobe Illustrator 24.2.0, SVG Export Plug-In . SVG Version: 6.00 Build 0)  -->
<svg version="1.1" xmlns="http://www.w3.org/2000/svg" xmlns:xlink="http://www.w3.org/1999/xlink" x="0px" y="0px" width="1728px"
	 height="1296px" viewBox="0 0 1728 1296" style="enable-background:new 0 0 1728 1296;" xml:space="preserve">
<style type="text/css">
	.st0{fill:#FF3C00;stroke:#000000;stroke-width:3;stroke-miterlimit:10;}
	.st1{stroke:#000000;stroke-width:5;stroke-miterlimit:10;}
	.st2{fill:#FFFFFF;stroke:#000000;stroke-width:5;stroke-miterlimit:10;}
	.st3{fill:#FF3C00;stroke:#000000;stroke-width:2;stroke-miterlimit:10;}
	.st4{fill:none;stroke:#000000;stroke-width:5;stroke-miterlimit:10;}
	.st5{fill:#E7A882;stroke:#000000;stroke-width:5;stroke-miterlimit:10;}
	.st6{fill:#000361;stroke:#000000;stroke-miterlimit:10;}
	.st7{fill:#0000FF;stroke:#000000;stroke-width:5;stroke-miterlimit:10;}
	.st8{fill:none;stroke:#000000;stroke-width:12;stroke-miterlimit:10;}
	.st9{fill:#0000FF;stroke:#000000;stroke-width:3;stroke-miterlimit:10;}
	.st10{fill:#B58567;stroke:#000000;stroke-width:5;stroke-miterlimit:10;}
	.st11{fill:#8F7C50;stroke:#000000;stroke-width:2;stroke-miterlimit:10;}
	.st12{fill:#CCB276;stroke:#000000;stroke-width:5;stroke-miterlimit:10;}
	.st13{fill:#0000E3;stroke:#000000;stroke-width:5;stroke-miterlimit:10;}
	.st14{fill:#FF0000;stroke:#000000;stroke-width:5;stroke-miterlimit:10;}
	.st15{fill:#E0C380;stroke:#000000;stroke-width:5;stroke-miterlimit:10;}
	.st16{fill:#FF3C00;stroke:#000000;stroke-width:5;stroke-miterlimit:10;}
	.st17{fill:#FF85A1;stroke:#CF6D99;stroke-width:2;stroke-miterlimit:10;}
	.st18{fill:#0F0606;stroke:#000000;stroke-width:5;stroke-miterlimit:10;}
	.st19{display:none;}
	.st20{display:inline;fill:#FFFFFF;stroke:#000000;stroke-width:5;stroke-miterlimit:10;}
	.st21{display:inline;fill:#FF3C00;stroke:#000000;stroke-width:5;stroke-miterlimit:10;}
	.st22{display:inline;fill:#0000FF;stroke:#000000;stroke-width:5;stroke-miterlimit:10;}
</style>
<g id="Layer_6">
	<g id="Layer_7_shoes">
		<path class="st1" d="M766.42,1155.82c1.09,10.83,2.29,21.99,6.54,32.57c33.13,4.05,67.09,2.64,97.18-4.26
			c4.09-10.35,6-21.37,4.66-33.66C839.34,1150.43,803.87,1152.01,766.42,1155.82z"/>
		<path class="st1" d="M1000.73,1155.82c-1.09,10.83-2.28,21.99-6.53,32.57c-33.06,4.05-66.94,2.64-96.97-4.26
			c-4.08-10.35-5.99-21.37-4.65-33.66C927.97,1150.43,963.36,1152.01,1000.73,1155.82z"/>
		<g id="Layer_15">
			<path class="st2" d="M1013.67,1129.66c3.37,13.64,4.45,27.77,3.19,41.71c-41.01,5.37-82.89,5.06-123.8-0.94
				c-2.03-0.3-4.29-0.74-5.45-2.31c-0.93-1.27-0.88-2.92-0.8-4.45c0.66-11.73,1.32-23.46,1.98-35.19
				c31.81-2.82,63.75-4.29,95.71-4.41C995.23,1124.04,1006.27,1124.2,1013.67,1129.66z"/>
			<path class="st3" d="M888.42,1168.81l25.99,4.36l35.25,2.1l45.66-2.01l21.57-2.75l1.26-9.21c-10.03,2-29.05,6.64-94.44,3.32
				c-16.47-0.84-28.29-3.58-36.44-4.75L888.42,1168.81z"/>
			<path class="st4" d="M1013.67,1129.66c3.37,13.64,4.45,27.77,3.19,41.71c-41.01,5.37-82.89,5.06-123.8-0.94
				c-2.03-0.3-4.29-0.74-5.45-2.31c-0.93-1.27-0.88-2.92-0.8-4.45c0.66-11.73,1.32-23.46,1.98-35.19
				c31.81-2.82,63.75-4.29,95.71-4.41C995.23,1124.04,1006.27,1124.2,1013.67,1129.66z"/>
			<path class="st2" d="M753.46,1129.66c-3.38,13.64-4.46,27.77-3.2,41.71c41.1,5.37,83.07,5.06,124.07-0.94
				c2.04-0.3,4.3-0.74,5.46-2.31c0.94-1.27,0.89-2.92,0.8-4.45c-0.66-11.73-1.32-23.46-1.99-35.19
				c-31.87-2.82-63.89-4.29-95.91-4.41C771.93,1124.04,760.87,1124.2,753.46,1129.66z"/>
			<path class="st3" d="M879.49,1168.81l-25.99,4.36l-35.25,2.1l-45.66-2.01l-21.57-2.75l-1.26-9.21c10.03,2,29.05,6.64,94.44,3.32
				c16.47-0.84,28.29-3.58,36.44-4.75L879.49,1168.81z"/>
			<path class="st4" d="M753.46,1129.66c-3.38,13.64-4.46,27.77-3.2,41.71c41.1,5.37,83.07,5.06,124.07-0.94
				c2.04-0.3,4.3-0.74,5.46-2.31c0.94-1.27,0.89-2.92,0.8-4.45c-0.66-11.73-1.32-23.46-1.99-35.19
				c-31.87-2.82-63.89-4.29-95.91-4.41C771.93,1124.04,760.87,1124.2,753.46,1129.66z"/>
		</g>
	</g>
	<g id="Layer_10">
		<ellipse class="st5" cx="677.11" cy="1030.62" rx="35.81" ry="35.02"/>
		<path class="st6" d="M1122.11,886.69c-10.18,11.88-39.92,38.1-53.26,43.71c-16.83,7.08-33.2,14.81-50.6,20.03
			s-35.91,7.51-53.53,1.8c7.7-16.56,19.03-29.63,31.98-39.22c12.95-9.59,27.5-15.78,42.5-19.92c10.81-2.98,21.92-4.92,33.29-4.8
			c5.03,0.05,10.15,0.52,15.17,2.38C1095.3,893.5,1116.12,881.73,1122.11,886.69z"/>
		<path class="st6" d="M632.7,956.05c10.87,9.02,25.67,12.2,39,16.44c16.81,5.34,33.42,11.47,50.6,15.39
			c17.18,3.93,35.15,5.61,51.52,1.19c-8.93-12.6-21.02-22.54-34.34-29.8c-13.31-7.27-27.85-11.94-42.63-15.04
			c-10.64-2.24-21.49-3.68-32.38-3.55c-4.82,0.06-9.68,0.43-14.33,1.87C643.07,944.73,635.75,950.19,632.7,956.05z"/>
		<path class="st2" d="M641.03,1012.91c3.92-37.12,14.51-73.52,31.09-106.96c6.69-13.49,14.51-26.71,25.55-36.95
			c10.08-9.35,25.38-16.01,37.39-9.33c8.85,4.92,12.9,15.5,14.52,25.5c2.58,15.95,0.72,32.27-1.81,48.23
			c-4.9,30.9-12.31,61.41-22.12,91.11c-0.87,2.63-1.82,5.36-3.83,7.26c-3.01,2.86-7.58,3.15-11.73,3.1
			C684.08,1034.6,658.18,1027.46,641.03,1012.91z"/>
		<path class="st7" d="M719.42,1017.28c-26.68,3.92-55.35-3.87-76.31-20.31c-1.08,4.04-1.47,13.18-2.07,15.99
			c5.54,4.67,16.71,10.84,23.72,13.69c7.01,2.85,15.02,4.68,22.44,6.15c9.86,1.95,14.73,3.07,24.74,2.08L719.42,1017.28z"/>
		<g id="Layer_18">
			
				<ellipse transform="matrix(0.8714 -0.4905 0.4905 0.8714 -334.8135 689.9047)" class="st5" cx="1148.76" cy="983.69" rx="36.68" ry="35.02"/>
			<path class="st2" d="M1167.55,943.46c-21.71-30.37-49.03-56.77-80.25-77.56c-12.6-8.39-26.07-15.97-40.97-19.35
				c-13.6-3.08-30.54-1.18-38,10.69c-5.5,8.75-3.93,20-0.47,29.53c5.52,15.2,15.19,28.48,25.28,41.11
				c19.54,24.46,41.12,47.32,64.47,68.27c2.06,1.85,4.26,3.75,6.98,4.4c4.09,0.98,8.32-1.07,12.01-3.2
				C1139.71,984.03,1159.36,964.77,1167.55,943.46z"/>
			<path class="st7" d="M1093.39,989.02c25.74-9.99,50.19-36.06,60.84-60.92c0.96,0.2,11.41,13.23,13.32,15.37
				c-2.66,6.86-10.57,19.04-15.42,25.04c-4.86,6.01-14.03,13.52-19.94,18.53c-6.43,5.45-13.71,8.73-21.32,12.03
				c-3.06,1.33-6.59,0.7-8.91-1.59L1093.39,989.02z"/>
		</g>
	</g>
	<g id="Layer_14">
		<path class="st2" d="M744.13,760.64c-18.34,112.28-39.07,252.31-62.52,362.22c33.82,10.52,68.95,16.11,104.07,20.74
			c92.62,12.19,188.78,17.55,280.11-16.71c-25.5-122.34-50-244.88-73.53-364.13C909.59,761.79,827.75,732.89,744.13,760.64z"/>
		<path class="st9" d="M1055.79,1087.06c-120.13,42.63-246.45,32.37-365.76-5.52l-2.52,12.82c119.31,37.89,250.46,47.98,370.76,5.29
			L1055.79,1087.06z"/>
		<path class="st0" d="M1040.13,1000.54c-112.27,26.69-224.63,24.92-332.92-11.37l-3.96,21.43
			c110.78,37.6,224.07,39.17,340.88,10.66L1040.13,1000.54z"/>
	</g>
	<g id="Layer_16">
		<rect x="784.32" y="769.04" class="st10" width="182.46" height="123.57"/>
	</g>
</g>
<g id="Layer_2">
	
		<ellipse transform="matrix(0.9924 -0.1228 0.1228 0.9924 -70.2022 111.6725)" class="st5" cx="870.85" cy="625.35" rx="267" ry="206"/>
	<path class="st11" d="M489.68,639.09c118.3-9.08,234.22-53.88,350.82-81.6c48.11-29.69,98.04-56.46,148.08-74.32
		c1.62-2.55,5.15-3.32,8.08-2.56c2.92,0.76,5.36,2.74,7.62,4.75c10.98,9.76,20.29,21.62,31.32,31.79
		c65.64-10.42,133.53-21.59,187.29-56.34c-14.77-8.85-86.45-6.68-129.23-6.08c-34.63,0.49-69.27,0.98-103.82,3.38
		c-77.81,5.4-154.93,20.53-231.64,46.97c-14.15,2.22-27.28,8.52-40.34,14.39c-62.17,27.93-128.51,47.84-185.57,85.11
		C518.92,613.32,504.75,626.71,489.68,639.09z"/>
	<path class="st1" d="M613.72,691.68c78.45-19.49,147.41-61.71,212.62-111.8c-0.38,9.07-3.75,18-9.46,25.06
		c59.78-18.64,102.87-54.24,143.22-103.84c40.51,49.92,110.78,82.76,175.21,93.04c-2.01-45.5-27.2-88.18-62.46-117.02
		s-79.75-44.77-124.8-51.46c-45.05-6.69-90.95-4.63-136.32-0.66c-11.7,1.02-23.53,2.21-34.57,6.2c-9.82,3.55-18.71,9.22-27.51,14.84
		c-17.64,11.27-35.28,22.54-55.82,35.92c-40.7,30.2-77.95,73.28-85.85,123.61c-1.35,8.57-2.47,26.38-2.47,26.38
		C603.39,650.9,609.27,670.85,613.72,691.68z"/>
	<g id="Layer_11">
		<path class="st12" d="M660.47,503.34c-7.32-81.03,39.38-164.29,112.36-200.28s167.46-22.37,227.3,32.76
			c24.87,22.91,44.31,53.43,42.9,89c-59.27,2.5-117.23,17.32-174.69,32.07c-62.14,15.95-124.28,31.9-186.42,47.84
			C673.6,506.87,665.23,509.02,660.47,503.34z"/>
		<path class="st13" d="M660.47,503.34c-7.32-81.03,33.48-92.15,106.45-128.14s136.41-43.58,213.64-34.94
			c33.6,3.76,63.87,49,62.46,84.57c-59.27,2.5-124.44,0.28-181.9,15.02c-62.14,15.95-114.74,13.71-179.21,64.89
			C675.2,510.08,665.23,509.02,660.47,503.34z"/>
		<path class="st14" d="M661.07,464.58c34.2-24.57,74.66-38.96,115.31-50.07c70.24-19.21,142.92-29.57,215.73-30.68
			c16.48-0.25,33.16-0.01,44.05,1.56c-16.3-29.97-41.16-55.25-68.65-71.87c-92.6,1.98-189.03,24.77-275.66,63.84
			c-12.13,20.09-17.65,40.24-24.81,62.57C664.56,447.67,662.38,455.92,661.07,464.58z"/>
		<path class="st15" d="M540.8,579.31c19.84-30.17,48.51-53.79,79.85-71.73c31.34-17.95,65.42-30.54,99.67-41.98
			c80.18-26.8,163-43.85,242.78-57.07c53.73-4.59,145.04-2.89,202.06,31.93c-125.47,10.71-250.36,28.22-373.93,52.44
			c-36.54,7.16-73.27,15-107.38,29.93C635.38,544.03,590.59,579.84,540.8,579.31z"/>
		<path class="st16" d="M490.25,635.83c6.97-23.82,20.82-46.17,41.31-60.17c8.75-5.98,18.48-10.33,28.2-14.56
			c184.31-80.21,382.63-128.1,578.2-134.74c28.04,1.61,55.54,11.63,79.67,32c-65.22-0.33-130.63,0.71-195.28,9.35
			c-53.92,7.21-106.97,19.65-159.93,32.07C732.94,530.16,599.94,562.07,490.25,635.83z"/>
		<g id="Layer_12">
			<path class="st16" d="M641.47,397.94c16.94-6.61,32.18-17.52,43.9-31.42c7.33,6.91,17.36,10.88,27.43,10.87
				c0.44,16.24-2.01,32.55-7.2,47.94c-0.39,1.17-0.83,2.37-1.72,3.22c-1.44,1.36-3.63,1.44-5.61,1.36
				C675.85,428.97,654.14,417.01,641.47,397.94z"/>
			<path class="st16" d="M961.87,319.73c4.64,18.91,12.58,37,23.35,53.22c0.77,1.16,1.63,2.38,2.93,2.88
				c0.88,0.34,1.86,0.31,2.8,0.23c14.18-1.15,26.14-10.57,37.14-19.58c4.26-3.49,8.6-7.07,11.52-11.75
				c4.06-6.51,4.93-14.45,3.57-21.21c-7.75,2.24-15.85,4.5-23.78,3.03c-2.76-0.51-5.42-1.47-8.06-2.43
				c-5.79-2.11-11.58-4.26-17.11-6.98c-7.3-3.58-14.13-8.11-20.26-13.44C971.54,310.74,960.49,314.12,961.87,319.73z"/>
			<path class="st16" d="M818.61,338.21c-3.46,16.93-6.25,34-8.37,51.15c21.41,6.66,45.65,3.58,64.6-7.48
				c-14.48-17.82-28.21-36.25-41.14-55.22C828.5,328.85,820.23,330.32,818.61,338.21z"/>
			<circle class="st16" cx="704.44" cy="367.84" r="17.5"/>
			<circle class="st16" cx="827.28" cy="331.57" r="17.5"/>
			<circle class="st16" cx="964.7" cy="311.4" r="17.5"/>
			<path class="st16" d="M758.89,263.14c-2.32-4.13-3.45-9.42-1.88-13.78c1.57-4.36,6.42-7.01,10.16-4.68
				c-2.18-6.73-0.12-14.76,4.8-18.69c4.92-3.93,12.28-3.42,17.12,1.19c0.52-6.47,5.65-11.76,11.3-11.64s11.08,5.62,11.96,12.12
				c3.6-5.78,11.17-7.03,17.01-3.92c2.42,1.28,4.64,3.26,6.03,5.89c1.38,2.64,1.83,5.98,0.81,8.7c4.94-1.58,10.85,1.28,13.54,6.56
				s1.89,12.45-1.83,16.42c2.38-0.49,4.6,1.78,6.23,3.97c2.31,3.1,4.48,6.7,4.66,10.69c0.29,6.48-4.92,11.52-10.39,12.62
				c0.71,2.42,0.12,5.09-1.08,7.12c-1.2,2.03-2.96,3.52-4.74,4.86c-4.39,3.29-10.35,5.83-14.88,2.28c-0.83,3.59-4.2,5.34-7.27,6.42
				c-3.37,1.18-6.88,2.08-10.46,1.84c-3.57-0.24-7.25-1.73-9.83-4.73c-0.3-0.35-0.61-0.74-1.01-0.91c-1.48-0.61-2.15,1.85-2.82,3.43
				c-1.64,3.89-6.46,3.71-10.25,2.92c-5.64-1.17-12.17-3.25-14.5-9.37c-0.19-0.51-0.38-1.07-0.79-1.37
				c-1.16-0.85-2.12,1.17-3.25,1.95c-1.23,0.86-2.87,0.14-4.23-0.6c-4.08-2.2-8.6-4.94-10.04-9.85c-0.69-2.35-0.54-4.9-0.04-7.25
				c0.92-4.35,3.03-8.3,5.97-11.14c-2.18-0.84-3.37-3.83-3.15-6.42C756.26,265.18,757.55,262.95,758.89,263.14z"/>
		</g>
		<g id="Layer_13">
			
				<ellipse transform="matrix(0.9865 -0.1639 0.1639 0.9865 -68.6915 197.8691)" class="st14" cx="1164.56" cy="515.14" rx="15" ry="14.28"/>
			
				<ellipse transform="matrix(0.9865 -0.1639 0.1639 0.9865 -99.3793 105.6945)" class="st14" cx="590.72" cy="654.99" rx="15" ry="14.28"/>
			
				<ellipse transform="matrix(0.9865 -0.1639 0.1639 0.9865 -101.589 96.9309)" class="st14" cx="536.52" cy="664" rx="18.11" ry="16.53"/>
			
				<ellipse transform="matrix(0.9865 -0.1639 0.1639 0.9865 -67.9295 206.6244)" class="st14" cx="1217.99" cy="514.9" rx="18.11" ry="16.53"/>
			<path class="st14" d="M523.74,616.47c0.38,11.87,2.93,23.67,7.49,34.64"/>
			<path class="st14" d="M1200.66,458.67c6.77,12.84,12.18,26.4,16.1,40.38"/>
			<path class="st14" d="M584.43,626.5c0.72,4.57,1.78,9.08,3.18,13.48"/>
			<path class="st14" d="M1156.36,491.71c2.13,2.41,3.63,5.37,4.3,8.52"/>
		</g>
	</g>
	<g id="Layer_17">
		
			<ellipse transform="matrix(0.9955 -0.0951 0.0951 0.9955 -64.3978 102.4844)" class="st17" cx="1043.41" cy="727.12" rx="28.4" ry="19.21"/>
		
			<ellipse transform="matrix(0.9933 -0.1155 0.1155 0.9933 -83.7328 88.4333)" class="st17" cx="721.45" cy="766.96" rx="28.36" ry="19.24"/>
		
			<ellipse transform="matrix(0.9989 -0.0465 0.0465 0.9989 -30.2868 46.1971)" class="st18" cx="977.34" cy="673.77" rx="38.36" ry="47.93"/>
		
			<ellipse transform="matrix(0.9989 -0.0465 0.0465 0.9989 -31.7886 36.8487)" class="st1" cx="775.75" cy="701.36" rx="38.36" ry="47.93"/>
		<path class="st4" d="M849.69,747.45c10.48,6.66,22.9,9.56,34.84,8.13s23.32-7.19,31.84-16.23"/>
	</g>
</g>
<g id="Layer_3">
	<g id="Layer_5">
		<g id="Left" class="st19">
			<path class="st20" d="M700.48,831.66c-33.62,30.28-64.26,71.66-72.09,117.55c26.97-2.34,54.09-4.67,81.08-2.63
				c27,2.05,68.11,12.2,92.87,27.12c27.73-30.93,61.42-56.49,100.05-74.32C842.08,859.36,772.11,834.04,700.48,831.66z"/>
			<path class="st21" d="M699.42,806.74c16.5-7.53,35.51-7.3,53.45-4.64c40.85,6.05,79.57,24.01,112.04,49.51
				c5.01,3.94,9.98,8.16,13.25,14.66c-6.11,7.41-13.1,14.1-22.1,20.13c-9.44-7.54-20.66-12.46-31.82-17.07
				c-21.66-8.96-43.81-17.15-66.9-21.17c-23.09-4.02-50.1-9.99-72.43-0.83c-3.08-7.6-1.99-12.92-0.23-20.93
				C686.62,817.5,691.95,810.14,699.42,806.74z"/>
			<path class="st22" d="M816.86,957.35c-53.03-34.87-117.39-34.63-180.82-29.26c0,0-4.46,20.61-4.46,21.48
				c29.28-2.48,71.57-4.63,89.26-1.41c30.33,5.53,53.85,11.28,81.97,25.54C807.65,966.66,811.45,963.23,816.86,957.35z"/>
		</g>
		<g id="Right">
			<path class="st2" d="M1024.79,835.44c5.89-0.23,63.09-7.06,93.12,47.47c-27.67-6.61-79.19,27.37-151.13,79.84
				c-27.76-30.93-71.82-49.49-110.5-67.32C916.67,855.41,952.25,838.23,1024.79,835.44z"/>
			<path class="st2" d="M693.11,832.44c-33.66,30.28-50.32,75.16-58.16,121.05c27-2.34,54.15-4.67,81.18-2.63s54.17,8.7,78.96,23.62
				c27.76-30.93,61.49-56.49,100.17-74.32C834.88,860.13,764.82,834.82,693.11,832.44z"/>
			<path class="st16" d="M1055,798.09c-16.84-7.42-35.8-6.29-53.57-2.58c-40.45,8.46-78.19,29.77-109.31,58.99
				c-4.81,4.51-9.55,9.33-12.48,16.55c6.47,7.78,13.78,14.73,23.06,20.86c9.04-8.63,19.99-14.49,30.89-20.03
				c21.16-10.74,42.85-20.67,65.69-26.1c22.84-5.43,49.49-13.17,72.23-4.24c2.69-8.41,1.34-14.13-0.82-22.76
				C1068.31,809.2,1062.62,801.45,1055,798.09z"/>
			<path class="st16" d="M696.55,802.81c16.84-7.42,35.8-6.29,53.57-2.58c40.45,8.46,78.19,29.77,109.31,58.99
				c4.81,4.51,9.55,9.33,12.48,16.55c-6.47,7.78-13.78,14.73-23.06,20.86c-9.04-8.63-19.99-14.49-30.89-20.03
				c-21.16-10.74-42.85-20.67-65.7-26.1c-22.84-5.43-49.49-13.17-72.23-4.24c-2.69-8.41-1.34-14.13,0.82-22.76
				C683.24,813.93,688.93,806.17,696.55,802.81z"/>
			<path class="st7" d="M815.82,952.13c-48.72-32.23-112.23-35.01-172.32-33.09c0,0-5.11,16.65-5.15,17.39
				c27.74-0.89,60.08-1.21,87.54,2s54.7,11.71,76.03,27.16C806.77,959.74,810.48,956.95,815.82,952.13z"/>
			<path class="st16" d="M808.61,960.3c-49.71-32.76-110.02-32.54-169.47-27.49c0,0-4.18,19.37-4.18,20.18
				c27.44-2.33,56.6-5.37,83.95-3.21s54.71,10.09,76.54,25.88C799.97,969.05,803.53,965.83,808.61,960.3z"/>
			<path class="st7" d="M945.53,943.12c48.65-45.57,109.71-73.79,151.75-83.33c2.91-0.66,5.33,2.46,7.23,4.76
				c3.94,4.77,10.48,13.25,9.82,17.8c-5.76-0.31-35.6,8.79-41.32,9.56c-23.93,3.22-31.34,17.47-52.5,29.11
				c-21.16,11.64-35.89,25.4-53.73,39.68C962.06,957.14,952.92,946.14,945.53,943.12z"/>
			<path class="st16" d="M954.34,949.14c46.76-38.17,96.2-67.4,149.98-81.14c3.75,2.56,9.37,9.7,11.56,14.52
				c-8.54-0.91-55.26,17.41-76.82,29.73c0,0-44.54,26.21-71.81,49.97C962.72,958.42,955.58,949.84,954.34,949.14z"/>
		</g>
	</g>
	<g id="Bow">
		<path class="st16" d="M851.73,969.7c-14.03,8.62-30.48,12.62-43.91,13.62c2.02-22.51,8.74-44.58,17.81-63.2
			c5.36-7.66,12.54-14.04,19.01-17.44c9.14-5.28,18.94-9.42,28.66-10.08c5.1,5.32,7.4,12.65,9.53,19.7
			c0.78,2.58,1.56,5.16,2.34,7.74c0.26,0.86,0.52,1.74,0.48,2.63c-0.05,1.05-0.51,2.03-0.98,2.97
			C882.96,929.11,865.75,961.08,851.73,969.7z"/>
		<path class="st16" d="M880.46,908.95c1.51,13.59,3.16,27.63,10.05,39.44c9.55,16.37,30.49,28.66,49.35,35.16
			c2.21-16.44,2.25-52.9,0.1-53.96c-7.87-20.61-30.89-25.09-47.27-37.16C888.33,897.85,884.75,903.88,880.46,908.95z"/>
		<path class="st16" d="M849.34,881.9c-1.41,9.62-0.61,19.56,3.43,29.38c10.18,3.27,21.26,6.32,31.36,2.82
			c5.25-1.82,9.76-5.28,13.42-7.63c3.7-6.71,5.45-14.48,4.98-22.13c-0.19-3.12-0.74-6.23-1.81-9.92c-4.14-6-10.38-10.51-17.38-12.57
			c-4.24-1.25-8.69-1.6-13.47-2.07C859.27,863.88,851.02,870.47,849.34,881.9z"/>
		<path class="st0" d="M893.35,910.22c4.83,5.12,8.91,10.95,12.07,17.24"/>
		<path class="st0" d="M859.81,914.02c-6.61,6.69-13.38,13.62-16.98,22.31"/>
	</g>
</g>
<g id="Layer_1" class="st19">
</g>
</svg>
