<?xml version="1.0" encoding="utf-8"?>
<!-- Generator: Adobe Adobe Illustrator 24.2.0, SVG Export Plug-In . SVG Version: 6.00 Build 0)  -->
<svg version="1.1" xmlns="http://www.w3.org/2000/svg" xmlns:xlink="http://www.w3.org/1999/xlink" x="0px" y="0px" width="1920px"
	 height="1080px" viewBox="0 0 1920 1080" style="enable-background:new 0 0 1920 1080;" xml:space="preserve">
<style type="text/css">
	.logo_st0{display:none;}
	.logo_st1{display:inline;opacity:0.3294;}
	.logo_st2{stroke:#000000;stroke-miterlimit:10;}
	.logo_st3{fill:#FFFFFF;stroke:#000000;stroke-miterlimit:10;}
</style>
<g id="Logo_Layer_1" class="logo_st0">
	<g class="logo_st1">
		<g>
			<path d="M873.29,331.7c0.14,51.42,4.97,102.64,5.67,154.95c18.93-0.17,37.05-14.92,57.79-0.22c0-10.52,0.9-20.29-0.18-29.83
				c-2.42-21.4-2.2-42.71,0.44-63.99c1.19-9.63,6.41-18.26,12.5-25.17c17.55-19.88,37.9-33.79,66.85-25.96
				c16.32,4.41,28.52,13.85,36.05,28.3c11.6,22.25,14.27,46.5,12.88,71.3c-0.22,3.97-0.34,7.96-0.34,11.94
				c0.02,47.47,0.43,94.95-0.05,142.42c-0.24,23.76-7.33,45.46-27.35,60.28c-16.4,12.14-46.6,16.75-64.71-1.04
				c-9.25-9.08-21.81-15.42-25.27-29.15c-2.7-10.73-3.12-22.08-6.39-32.6c-7.15-23.03-3-46.6-4.86-69.84
				c-0.21-2.66,1-5.61-1.97-8.36c-13.48,2.84-27.36,5.71-41.22,8.69c-9.38,2.02-14.48,6.08-14.28,17.5
				c0.76,41.47-0.14,82.97,0.35,124.45c0.13,10.91-3.79,15.54-14.35,15.39c-3.19-0.05-6.39,0.48-9.58,0.39
				c-12.73-0.36-16.48-3.75-16.59-16.44c-0.29-34.31-0.23-68.62-0.31-102.92c-0.01-4.35,0-8.69,0-12.83
				c-19.8-3.64-29.5,4.08-29.49,22.39c0.01,21.54-0.56,43.1,0.08,64.62c0.42,14.26-9.67,13.48-18.41,13.99
				c-9.21,0.54-19.08,0.76-20.26-12.6c-1.82-20.71-1.05-41.45-1.19-62.18c-0.03-3.92,1.11-7.95-1.42-12.7
				c-8.42,0.6-13.79-3.5-13.29-12.87c0.46-8.5-3.76-19.49,10.22-21.7c5.04-0.8,4.42-4.68,4.96-8.17c3.87-25.33,3.8-50.84,3.85-76.35
				c0.05-27.92,0.5-55.78,4.88-83.49c1.23-7.77,4.18-13.59,11.84-14.08c8.72-0.57,8.92,7.1,10.05,13.48
				c8.55,48.02,3.67,96.82,8.5,145.05c0.27,2.72,0.6,5.44,1.06,9.54c8.52-2.79,16.32-5.22,24.02-7.92c4.05-1.42,4.69-4.96,4.67-8.79
				c-0.03-5.18,0.2-10.37,0.22-15.56c0.16-49.42,4.66-98.65,6.64-148.96C854.46,331.7,863.33,331.7,873.29,331.7z M973,429.63
				c-0.03,47.77-1.07,95.57,0.4,143.29c0.58,18.81,7.68,37.03,23.42,49.93c7.19,5.88,18.02,4.75,19.75-2.73
				c3.98-17.2,10.8-34.03,11.13-51.74c0.75-39.8,1.17-79.65-0.15-119.42c-0.61-18.38-2.83-37.09-8.96-54.87
				c-5.38-15.62-19.29-19.15-31.27-7.76c-5.41,5.14-10.41,10.24-10.45,18.91C976.84,412.64,974.65,420.05,973,429.63z"/>
			<path d="M198.89,331.7c4.85,51.48,1.53,103.31,8.12,156.03c11.96-5,23.58-6.27,35.05-8.33c9.87-1.77,16.45,0.69,17.05,11.99
				c0.21,3.96,0.8,7.9,1.29,11.84c1.3,10.39-4.43,15.35-13.73,14.86c-10.83-0.57-20.16,4.48-30.35,6.12
				c-7.5,1.21-9.93,6.9-9.83,14.99c0.5,39.89,0.46,79.79,0.23,119.69c-0.11,19.35-18.97,29.84-36.32,20.66
				c-5.93-3.14-6.31-8.61-6.31-14.38c-0.02-34.31-0.07-68.63-0.21-102.94c-0.02-4.71,0.92-9.57-1.2-14.09
				c-21.05-1.2-28.31,5.37-28.34,25.51c-0.03,20.75-0.76,41.52,0.05,62.23c0.55,14.04-8.7,13.79-17.79,14.37
				c-14.72,0.94-20.12-2.04-20.65-13.32c-1-21.1-0.8-42.26-1.09-63.4c-0.04-3.15-0.01-6.3-0.01-9.19
				c-13.51-4.8-19.02-16.5-14.28-29.43c0.65-1.77,2.05-4.48,3.34-4.63c14.53-1.66,10.67-13.05,11.88-21.74
				c6.11-44.04,0.62-88.56,5.51-132.64c0.61-5.5,2.6-10.94,2.56-16.4c-0.07-9.07,5.41-14.14,12.74-14.45
				c8.13-0.34,10.4,7.77,11.25,14.44c3.75,29.7,4.35,59.61,5.23,89.49c0.52,17.54,0.47,35.1,0.71,52.65
				c0.05,3.92-0.66,8.05,2.95,11.75c6.89-2.27,14-4.64,21.12-6.97c4.36-1.42,6.59-4.26,6.19-8.95c-0.07-0.79,0.01-1.6-0.02-2.39
				c-1.92-53.86,5.77-107.41,5.11-162.31C178.46,331.7,188.12,331.7,198.89,331.7z"/>
			<path d="M306.68,637.04c-21.09-16.51-20.84-40.75-24.8-62.84c-10.78-60.17-3.08-120.81-3.02-181.25
				c0.01-12.71,1.99-25.41,2.7-38.13c0.52-9.31,6.92-11.09,14.03-10.8c6.71,0.28,15.45-3.97,17.96,8.1
				c2.03,9.8,3.9,19.42,3.92,29.46c0.11,55.02-0.15,110.05,0.9,165.06c0.43,22.46,8.35,43.18,23.46,60.41
				c4.41,5.03,10.14,9.92,17.3,8.67c8.16-1.42,10.04-8.69,12.19-15.89c8.47-28.37,12.14-57.08,11.44-86.8
				c-1.03-43.83-0.2-87.71-0.14-131.57c0.01-3.99-0.07-7.99,0.22-11.96c1.44-19.53,16.13-28.43,34.35-21
				c2.08,0.85,3.76,1.96,3.61,4.11c-0.65,9.71,4.3,18.41,4.27,28.19c-0.23,69.38,1.74,138.82-0.69,208.1
				c-0.95,27.15-13.2,52.95-40.46,66.81C360.09,667.83,328.08,660.11,306.68,637.04z"/>
			<path d="M1595.71,543.39c-2.31-22.66,0.21-44.16,0.68-65.67c0.44-20.21-5.76-39.7-4.47-60.12c1.83-28.92,11.34-52.63,36.48-69.04
				c29.99-19.56,68.36-7.77,83.72,23.06c6.44,12.92,8.82,26.55,10.19,40.97c3.06,32.24-1.4,64.3-0.33,96.48
				c1.09,32.66,2.22,65.57-0.5,98.04c-3.11,37.22-25.39,60.79-64.61,59.29c-19.21-0.74-45.97-25.76-51.11-44.28
				C1598.69,596.6,1595.2,570.89,1595.71,543.39z M1686.57,542.2c3.65-12.04-3.39-23.56-1.69-35.55
				c4.96-35.03-1.03-69.65-4.34-104.35c-1.13-11.82-10.07-21.59-19.81-22.45c-7.11-0.63-20.85,8.93-22.95,16.72
				c-4.87,18.05-7.59,36.58-7.66,55.19c-0.14,39.08,0.13,78.19,1.45,117.24c0.69,20.49,7.11,39.56,23.87,53.33
				c8.15,6.7,18.63,5.07,20.26-3.66C1680.31,594.03,1690.52,570.07,1686.57,542.2z"/>
			<path d="M1861.33,641.14c-0.79,1.5-0.94,2.45-1.49,2.91c-27.58,22.83-74.3,22.96-102.35,0.34
				c-12.21-9.84-14.74-24.47-16.11-38.21c-1.84-18.56-0.48-37.43-0.48-56.16c0-3.31,0.48-6.5,3.91-8.08
				c7.97-3.68,16.88-4.12,24.32-0.92c5.38,2.31,7.93,9.34,7.75,16.33c-0.3,11.16-0.05,22.33-0.08,33.5
				c-0.04,13.94,5.82,21.92,19.48,25.29c6.16,1.52,12.59,2.37,18.94,2.66c16.41,0.75,21.58-4.18,22.07-20.4
				c0.19-6.38,0.09-12.77,0.07-19.15c-0.05-27.4-18.89-54.12-45.95-60.11c-31.03-6.86-50.84-39.43-50.57-66.24
				c0.21-20.35,0.16-40.7,0.17-61.04c0.01-14.85,10.98-23.65,20.01-32.31c20.29-19.45,46.35-19.64,71.68-14.84
				c15.01,2.85,21.98,17.42,27.86,30.46c11.9,26.42,11.09,54.2,7.73,82.25c-1.64,13.7-13.13,11-20.97,12.88
				c-6.9,1.66-9.25-5.45-9.66-11.05c-0.84-11.52-0.46-23.13-1.2-34.66c-0.8-12.43-4.56-24.23-12.61-33.82
				c-14.28-17.01-38.59-12.69-44.96,8.8c-5.36,18.07-5.04,38.02-0.82,55.65c3.14,13.11,16.22,24.58,30.02,30.36
				c11.74,4.92,20.45,12.81,29.58,20.94c5.83,5.19,11.97,10.12,18.98,14.21c11.45,6.68,11.65,20.04,13.48,31.4
				c1.93,12,1.49,24.14,4.03,36.4C1877.98,606.78,1871.99,624.49,1861.33,641.14z"/>
			<path d="M607.8,398.66c1.54-19.3,8.79-35.03,26.52-41.31c19.34-6.85,40.43-11.22,60.2-2.38c19.47,8.7,29.75,25.89,30.52,47.05
				c0.9,25.06,1.05,50.16-1.36,75.27c-1.06,11.09-6.52,14.34-16.11,14.6c-19.9,0.54-23.25-2.54-20.32-22.43
				c2.63-17.88,2.5-35.76,2.23-53.67c-0.36-23.79-12.19-32.64-34.77-26.67c-6.35,1.68-9.01,7.15-10.2,12.2
				c-5,21.25-9.14,42.78-9.51,64.65c-0.63,37.45-0.03,74.93-0.79,112.38c-0.22,10.82,3.5,20.31,6.43,30.05
				c2.72,9.05,27.15,19.67,36.19,16.58c7.54-2.58,9.23-9.15,9.63-16.24c1.19-21.08,0.32-42.22,2.9-63.27
				c1.74-14.21,4.3-17.4,18.34-17.64c19.39-0.32,21.89,1.76,22.27,21.02c0.52,26.34-2.26,52.48-6.76,78.39
				c-3.18,18.28-24.33,35.2-42.85,34.51c-19.55-0.73-38.96-2.33-56.02-13.63c-6.76-4.48-11.06-10.1-14.56-17.74
				c-19.18-41.88-9.78-86.15-11.45-129.37c-0.89-22.97-0.71-46.24,2.59-69.16C602.46,421.03,605.3,410.38,607.8,398.66z"/>
			<path d="M1377.58,654.53c-16.56-3.31-31.85-1.89-46.73,3.69c-4.21,1.58-9.31,3.64-12.78,1.64c-15.01-8.69-30.25-3.01-45.4-1.89
				c-14.12,1.05-20.53-2.17-21.1-11.06c-1.22-19,3.4-25,19.42-25.37c5.19-0.12,10.37-0.48,15.55-0.77
				c17.49-0.96,17.49-0.96,17.52-17.88c0.15-70.18,0.15-140.36,0.61-210.54c0.06-9.31-3.07-13.18-12.28-12.99
				c-8.38,0.18-16.81-0.77-25.16-0.27c-9.58,0.58-12.87-5.2-14.1-12.8c-1.25-7.72-3.38-16.05,7.87-19.4
				c3.77-1.12,7.23-3.06,11.36-2.99c33.14,0.52,66.29,1.01,99.43,1.43c6.15,0.08,9.85,2.63,10.31,9.02
				c0.34,4.76,0.99,9.53,0.95,14.29c-0.08,9.08-4.32,13.34-14.05,13.68c-28.82,1.03-28.85,1.34-28.86,30.1
				c-0.02,65,0.22,130-0.22,194.99c-0.07,10.87,2.94,15.41,14.2,14.33c7.51-0.72,15.19-0.21,22.76,0.28
				c6.66,0.43,11.95,2.71,14.36,10.18c2.58,7.98,0.99,14.91-3.05,21.52C1385.79,657.65,1381.93,656.18,1377.58,654.53z"/>
			<path d="M494.58,608.34c0.15-72.48,0.15-143.87,0.65-215.26c0.07-9.91-3.36-13.94-13.05-13.62c-7.18,0.24-14.39-0.16-21.58-0.21
				c-13.34-0.08-17.43-3.7-18.19-16.2c-0.77-12.63,3.43-18.5,16.82-18.89c23.96-0.7,47.96-0.09,71.93,0.2
				c7.16,0.09,14.3,1.23,21.47,1.4c17.75,0.41,24.68,11.66,18.14,28.62c-1.92,4.98-4.46,7.08-9.37,7.18
				c-1.6,0.03-3.2,0.12-4.79,0.18c-26.89,1.05-26.79,1.05-26.69,28.78c0.21,63.81,0.22,127.63,0.51,191.44
				c0.11,23.76-0.64,19.17,20.17,19.71c4.79,0.12,9.62-0.04,14.38,0.44c15.14,1.53,21.65,12.85,15.27,26.47
				c-1.88,4.02-4.21,7.95-9.85,6.47c-17.14-4.47-33.94-2.79-50.41,3.06c-7.19,2.55-14.29,2.94-20.74-1.17
				c-9.52-6.08-18.58-0.43-27.83,0.22c-3.19,0.22-6.38,0.41-9.57,0.61c-15.1,0.92-19.65-1.84-19.85-12.03
				c-0.39-20.45,2.24-23.87,18.48-24.17c7.58-0.14,15.15-0.5,22.72-0.52C491.06,621.02,495.24,617.67,494.58,608.34z"/>
			<path d="M1399.61,345.97c52.8-0.52,104.72-0.55,156.64-0.84c8.48-0.05,12.58,3.87,13.28,11.81c0.46,5.13,0.72,10.31,0.53,15.45
				c-0.33,8.88-4.05,13.38-14.15,12.61c-12.72-0.97-25.58,0.15-38.34-0.42c-10.11-0.46-13.86,2.61-13.81,13.56
				c0.34,81.73,0.02,163.46-0.17,245.18c-0.01,4.28,1.11,8.77-1.34,12.76c-31.8,7.6-37.27,3.65-37.32-28.17
				c-0.12-76.15,0.02-152.3,0.06-228.45c0-4.3,0-8.61,0-14.69c-18.19,0-35.25,0.42-52.28-0.23c-5.91-0.22-14.9,4.57-17.21-5.16
				C1392.87,368.33,1386.9,356.29,1399.61,345.97z"/>
			<path d="M1135.36,492.12c0.05,38.67,0.06,76.15,0.15,113.62c0.05,19.8,7.91,26.07,26.51,19.43c20.34-7.26,41.03-1.82,61.47-3.49
				c3.85-0.31,5.98,1.69,6.04,5.66c0.01,0.8,0.06,1.6,0.17,2.39c3.51,26.48,2.34,27.96-23.94,27.67
				c-14.41-0.16-28.57,0.97-42.84,3.48c-20.25,3.55-40.67-0.11-60.91-2.03c-9.64-0.91-14.29-16.73-7.88-28.4
				c2.94-5.34,3.52-10.29,3.52-15.83c0.08-84.52,0.22-169.04,0.2-253.55c0-9.99,2.28-16.77,14.19-17.59
				c21.01-1.45,22.57-0.67,22.76,20.67C1135.15,406.41,1135.19,448.66,1135.36,492.12z"/>
		</g>
	</g>
</g>
<g id="Logo_Layer_2">
	<path class="logo_st2" d="M1835.58,416.69c-1.54-11.17-3.94-23.07-12.05-30.9c-6.43-6.21-16.08-8.91-24.8-6.92
		c-8.72,1.98-16.25,8.59-19.36,16.97c-2.58,6.97-2.2,14.63-1.78,22.05c0.69,12.21,1.38,24.41,2.08,36.62
		c0.22,3.86,0.47,7.87,2.28,11.29c2.14,4.06,6.14,6.74,9.97,9.29c14.15,9.41,28,19.27,41.53,29.56
		c12.32,9.37,24.72,19.52,31.82,33.27c7.58,14.68,8.28,31.81,8.84,48.32c0.61,18.13,0.64,38.05-10.89,52.05
		c-11.8,14.32-31.96,17.93-50.4,20.04c-16.1,1.85-33.66,2.96-47.23-5.89c-15.43-10.07-20.9-29.8-24.16-47.94
		c-2.16-12.04-3.87-24.23-3.58-36.46c0.16-6.77-2-17.46,4.43-19.6c10.1-3.36,28.43-12.41,32.22,7.92
		c1.53,8.21,0.04,16.66,0.09,25.01c0.05,8.32,1.73,16.84,6.28,23.81c4.55,6.97,12.28,12.16,22.94,13.47
		c7.3,0.67,15.07,1.24,21.57-2.16c5.15-2.7,8.85-7.66,11.04-13.05s3-11.23,3.55-17.02c1.15-12.21,1.1-25.06-2.91-33.97
		c-8.94-16.55-26.98-25.66-43.89-33.9c-16.91-8.24-34.87-17.68-43.32-34.48c-4.47-8.88-5.78-18.98-6.52-28.9
		c-1.6-21.48-0.82-43.13,0.42-62.7c-0.93-16.06,9.47-30.95,22.44-40.47c14.24-10.44,32.31-15.97,49.83-13.79
		c17.52,2.19,34.16,12.49,42.67,27.96c4.86,8.83,7.01,18.88,8.56,28.84c3.3,21.18,4.21,42.73,2.69,64.11
		c-0.24,3.45-0.75,7.28-3.43,9.46c-1.84,1.49-4.32,1.87-6.67,2.18c-4.9,0.66-10.05,1.29-14.66-0.51S1837.75,432.37,1835.58,416.69z"
		/>
	<g id="Logo_Layer_3">
		<path class="logo_st2" d="M941.16,412.67c-1.07-17.46-1.85-35.78,10.94-51.4c12.8-15.61,44.05-27.01,70.22-20.11
			c27.72,7.31,34.49,29.13,36.88,47.58c7.23,55.8,9.28,111.86,6.14,167.81c-1.53,27.26-4.35,54.72-15.9,81.06
			c-5.31,12.11-14.73,25.36-34.09,29.39c-17.86,3.71-38.07-2.37-49.46-11.59c-11.39-9.22-15.79-20.92-19.19-32.3
			C925.61,552.53,945.3,480.25,941.16,412.67z"/>
		<path class="logo_st3" d="M973.5,434.6c-0.5-13.27-0.86-27.2,5.1-39.07s20.54-20.53,32.75-15.29c12.93,5.55,16.08,22.14,17.2,36.17
			c3.37,42.42,4.33,85.03,2.86,127.55c-0.71,20.72-2.03,41.59-7.41,61.61c-2.48,9.21-6.87,19.28-15.9,22.34
			c-8.33,2.82-17.75-1.8-23.06-8.81c-5.31-7.01-7.36-15.9-8.95-24.55C966.25,540.9,975.43,485.97,973.5,434.6z"/>
	</g>
	<path class="logo_st2" d="M1399.57,384.38c0,0,65.4-3.74,65.51,2.49l2.39,266.03c0,0,28.06,12.29,34.27-0.27
		c5.86-11.86,2.41-237.55,1.33-262.58c-0.05-1.25,0.9-2.32,2.15-2.4c20.69-1.34,41.41-2.31,62.13-2.9c0,0,7.3-33.91-3.15-37.16
		c-10.45-3.25-164.37-1.2-164.37-1.2S1385.09,366.35,1399.57,384.38z"/>
	<path class="logo_st2" d="M1256.03,378.02c12.75-1.6,25.61-2.23,38.46-1.87c2.53,0.07,5.21,0.23,7.28,1.67
		c1.89,1.31,2.98,3.47,3.82,5.61c5.32,13.58,3.34,28.75,2.11,43.28c-5.41,64.03,5.51,128.92-3.5,192.54
		c-0.23,1.61-0.54,3.35-1.74,4.44c-1.27,1.15-3.15,1.24-4.86,1.27c-13.87,0.22-27.74,0.45-45.99,1.08
		c0.66,7.95,1.32,15.89,1.98,23.84c0.17,2.04,0.39,4.21,1.65,5.82c2.08,2.65,6.01,2.71,9.38,2.53c41.06-2.24,82.12-4.47,126.51-8.41
		c-0.97-7.18-1.94-14.37-2.92-21.55c-0.09-0.66-0.19-1.36-0.61-1.89c-0.55-0.69-1.5-0.9-2.37-1.06c-7.74-1.39-15.6-2.03-23.46-1.9
		c-6.25,0.1-12.65,0.66-17.98-2.96c-4.62-74.8-5.18-149.85-1.68-224.72c0.19-4.11,0.59-8.65,3.59-11.47
		c2.01-1.89,4.82-2.61,7.51-3.27c10-2.44,19.99-4.89,29.13-5.23c-0.48-8.96-0.96-17.92-1.44-26.89c-0.08-1.55-0.21-3.22-1.23-4.38
		c-1.33-1.53-3.64-1.62-5.67-1.59c-40.3,0.65-80.58,2.38-120.79,5.16C1252.88,358.34,1253.89,368.63,1256.03,378.02z"/>
	<path class="logo_st2" d="M1096.32,348.45c-2.78,92.78-2.97,185.64-0.25,279.6c-3.41,6.19-6.93,12.87-6.23,19.9s7.7,13.82,12.25,12.13
		c28.33-3.23,56.94-2.88,85.45-2.52c12.73,0.16,25.46,0.32,39.85-1.04c-0.22-7.79-0.45-15.59-0.67-23.38
		c-0.07-2.58-0.21-5.35-1.8-7.39c-2.78-3.58-8.24-3.03-12.7-2.24c-22.36,3.98-45.19,5.25-71.32,0.78
		c-5.3-29.17-4.59-59.05-3.87-88.69c1.57-64.03,3.13-128.07-1.12-193.39C1122.81,336.23,1106.91,336.81,1096.32,348.45z"/>
	<g id="Logo_Layer_4">
		<path class="logo_st2" d="M1599.16,414.64c-1.07-17.46-1.85-35.78,10.94-51.4c12.8-15.61,44.05-27.01,70.22-20.11
			c27.72,7.31,34.49,29.13,36.88,47.58c7.23,55.8,9.28,111.86,6.14,167.81c-1.53,27.26-4.35,54.72-15.9,81.06
			c-5.31,12.11-14.73,25.36-34.09,29.39c-17.86,3.71-38.07-2.37-49.46-11.59c-11.39-9.22-15.79-20.92-19.19-32.3
			C1583.61,554.5,1603.3,482.22,1599.16,414.64z"/>
		<path class="logo_st3" d="M1631.5,436.57c-0.5-13.27-0.86-27.2,5.1-39.07c5.97-11.87,20.54-20.53,32.75-15.29
			c12.93,5.55,16.08,22.14,17.2,36.17c3.37,42.42,4.33,85.03,2.86,127.55c-0.71,20.72-2.03,41.59-7.41,61.61
			c-2.48,9.21-6.87,19.28-15.9,22.34c-8.33,2.82-17.75-1.8-23.06-8.81c-5.31-7.01-7.36-15.9-8.95-24.55
			C1624.25,542.87,1633.43,487.94,1631.5,436.57z"/>
	</g>
	<g id="Logo_Layer_5">
		<path class="logo_st2" d="M879.81,488.87c-41.2,12.88-82.43,25.77-122.03,43.2c-1.41,0.62-2.4,1.96-2.56,3.49
			c-0.79,7.56-1.11,15.18-0.96,22.78c0.03,1.48,0.12,3.08,1.08,4.2c0.86,1.01,2.23,1.4,3.53,1.64c7.49,1.38,21.48-6.68,21.48-6.68
			c90.93-34.13,150.61-31.06,150.61-31.06c1.8-0.35,4.56-33.15-5.68-47.63c-0.65-0.92-1.8-1.35-2.89-1.07L879.81,488.87z"/>
		<path class="logo_st2" d="M778.63,352.75c4.73-2.29,9.97-3.42,15.12-3.04c3.39,0.25,6.11,2.95,6.43,6.34
			c5.02,51.74,7.52,103.74,6.91,156.48c0.06,41.04,0.11,82.08,1.56,123.4c0.66,5.46-2.85,11.15-8.03,13.02
			c-2.12,0.76-4.41,0.93-6.67,0.96c-5.34,0.08-10.69-0.55-17.31-2.29c-3.03-0.8-5.19-3.47-5.29-6.6c-2.4-75.97-0.1-152,2.2-227.98
			c0.56-18.61,1.13-37.22,1.26-54.09C774.82,356.33,776.28,353.89,778.63,352.75z"/>
		<path class="logo_st2" d="M846.34,328.38c7.47-3.66,17.06,1.56,25.38,4.7c1.15,0.43,1.95,1.49,2.06,2.71
			c5.82,62.46,5.82,122.36,5.12,186.09c0.06,48.52-1.88,102.04-0.26,150.89c0.74,6.46-1.19,8.19-6.99,10.39
			c-2.38,0.9-4.94,1.1-7.47,1.13c-4.17,0.06-8.35-0.28-13.01-1.19c-7.12-1.39-12.26-7.62-12.46-14.88
			c-2.42-87.97,0.1-176.01,2.62-263.98c0.66-23.14,3.22-52.2,3.42-73.25C844.76,329.9,845.35,328.86,846.34,328.38z"/>
	</g>
	<path class="logo_st2" d="M687.31,459.41c0.84-17.16-0.68-34.44-4.51-51.2c-1.44-6.3-3.41-12.93-10.65-15.65
		c-6.59-2.48-13.99-0.63-19.15,4.15c-9.75,9.02-10.62,22.59-11.17,35.19c-1.06,24.25-2.11,48.5-3.17,72.75
		c-1.05,24.21-2.11,48.41-3.16,72.62c-0.39,8.91-0.71,18.19,2.91,26.34c3.24,7.29,9.38,12.96,16.2,17.1
		c8.41,5.1,20.45,7.64,27.27,0.55c3.42-3.56,4.59-8.67,5.45-13.53c2.75-15.51,3.84-31.31,1.38-47.94c-0.28-1.88,0.24-3.81,1.56-5.18
		c5.07-5.26,12.75-7.96,19.98-6.81c8.27,1.31,15.55,7.57,18.07,15.55c1.88,5.94,1.24,12.36,0.49,18.55
		c-1.91,15.88-4.39,31.69-7.42,47.39c-0.87,4.49-1.81,9.05-4.08,13.02c-3.97,6.95-11.46,11.12-18.98,13.88
		c-15.22,5.59-32.04,6.72-50.14,1.21c-14.18-5.22-28.93-11.42-38.02-23.5c-7.38-9.81-10.08-22.3-11.83-34.46
		c-6.22-43.22-2.89-87.17,0.46-130.7c1.99-25.88,4.02-51.97,11.19-76.92c4.88-16.94,13.31-34.51,29.16-42.24
		c15.25-7.43,33.31-3.9,49.87-0.22c6.98,1.55,14.33,3.29,19.52,8.22c5.61,5.32,7.61,13.33,9.14,20.91
		c5.71,28.39,8.33,57.39,7.8,86.34c-0.06,3.08-0.17,6.24-1.4,9.07c-1.52,3.48-4.59,6.06-7.86,7.98c-7.66,4.5-17.01,6.02-25.7,4.19
		c-1.69-0.36-3.46-0.91-4.53-2.26c-1.16-1.48-1.19-3.52-1.17-5.4C684.92,471.07,687.07,464.31,687.31,459.41z"/>
	<path class="logo_st2" d="M444.03,378.02c12.75-1.6,25.61-2.23,38.46-1.87c2.53,0.07,5.21,0.23,7.28,1.67c1.89,1.31,2.98,3.47,3.82,5.61
		c5.32,13.58,3.34,28.75,2.11,43.28c-5.41,64.03,5.51,128.92-3.5,192.54c-0.23,1.61-0.54,3.35-1.74,4.44
		c-1.27,1.15-3.15,1.24-4.86,1.27c-13.87,0.22-27.74,0.45-45.99,1.08c0.66,7.95,1.32,15.89,1.98,23.84
		c0.17,2.04,0.39,4.21,1.65,5.82c2.08,2.65,6.01,2.71,9.38,2.53c41.06-2.24,82.12-4.47,126.51-8.41
		c-0.97-7.18-1.94-14.37-2.92-21.55c-0.09-0.66-0.19-1.36-0.61-1.89c-0.55-0.69-1.5-0.9-2.37-1.06c-7.74-1.39-15.6-2.03-23.46-1.9
		c-6.25,0.1-12.65,0.66-17.98-2.96c-4.62-74.8-5.18-149.85-1.68-224.72c0.19-4.11,0.59-8.65,3.59-11.47
		c2.01-1.89,4.82-2.61,7.51-3.27c10-2.44,19.99-4.89,29.13-5.23c-0.48-8.96-0.96-17.92-1.44-26.89c-0.08-1.55-0.21-3.22-1.23-4.38
		c-1.33-1.53-3.64-1.62-5.67-1.59c-40.3,0.65-80.58,2.38-120.79,5.16C440.88,358.34,441.89,368.63,444.03,378.02z"/>
	<path class="logo_st2" d="M281.87,348.98c9.91-0.93,19.76-2.52,29.45-4.76c3.13,7.04,3.17,15.01,3.16,22.71
		c-0.07,45.89-0.14,91.78-0.2,137.67c-0.05,35.11,0.43,72.22,18.62,102.25c3.38,5.57,7.92,11.2,14.32,12.42
		c8.56,1.63,16.41-5.31,21.01-12.72c7.73-12.46,10.59-27.29,12.34-41.84c8.5-70.64-5.86-142.87,5.66-213.08
		c9.24-2.92,18.49-5.85,27.73-8.77c1.26,2.18,3.52,3.76,7.42,11.18c3.42,75.29,6.69,150.65,5.23,226
		c-0.44,22.71-2.28,47.76-18.38,63.78c-8.06,8.02-18.85,12.74-29.76,15.95c-14.72,4.34-31.75,5.93-46.24-1.27
		c-20.86-9.53-35.57-29.48-43.47-51.02c-7.9-21.53-9.78-44.76-10.93-67.67C274.73,478.3,276.31,416.54,281.87,348.98z"/>
	<g id="Logo_Layer_6">
		<path class="logo_st2" d="M174.33,326.38c7.47-3.66,17.06,1.56,25.38,4.7c1.15,0.43,1.95,1.49,2.06,2.71
			c5.82,62.46,5.82,122.36,5.12,186.09c0.06,48.52-1.88,87.27-0.26,136.12c0.74,6.46-1.19,8.19-6.99,10.39
			c-2.41,0.92-22.82,12.86-27.48,11.95c-7.12-1.39-12.26-7.62-12.46-14.88c-2.42-87.97,7.1-173.24,9.62-261.21
			c0.66-23.14,3.22-52.2,3.42-73.25C172.76,327.9,173.35,326.86,174.33,326.38z"/>
		<path class="logo_st2" d="M106.63,350.75c4.73-2.29,9.97-3.42,15.12-3.04c3.39,0.25,6.11,2.95,6.43,6.34
			c5.02,51.74,7.52,103.74,6.91,156.48c0.06,41.04,0.11,82.08,1.56,123.4c0.66,5.46-2.85,11.15-8.03,13.02
			c-2.12,0.76-4.41,0.93-6.67,0.96c-5.34,0.08-10.69-0.55-17.31-2.29c-3.03-0.8-5.19-3.47-5.29-6.6c-2.4-75.97-0.1-152,2.2-227.98
			c0.56-18.61,1.13-37.22,1.26-54.09C102.82,354.33,104.28,351.89,106.63,350.75z"/>
		<path class="logo_st2" d="M207.81,486.87c-41.2,12.88-82.43,25.77-122.03,43.2c-1.41,0.62-2.4,1.96-2.56,3.49
			c-0.79,7.56-1.11,15.18-0.96,22.78c0.03,1.48,0.12,3.08,1.08,4.2c0.86,1.01,2.23,1.4,3.53,1.64c7.49,1.38,21.48-6.68,21.48-6.68
			c90.93-34.13,150.61-31.06,150.61-31.06c1.8-0.35,4.56-33.15-5.68-47.63c-0.65-0.92-1.8-1.35-2.89-1.07L207.81,486.87z"/>
	</g>
</g>
</svg>
